<?xml version="1.0" encoding="UTF-8"?>
<svg width="50px" height="50px" viewBox="0 0 50 50" version="1.1" xmlns="http://www.w3.org/2000/svg" xmlns:xlink="http://www.w3.org/1999/xlink">
    <!-- Generator: sketchtool 48.2 (47327) - http://www.bohemiancoding.com/sketch -->
    <title>98C9AC29-B47D-4191-8047-F582FB7C6A75</title>
    <desc>Created with sketchtool.</desc>
    <defs>
        <polygon id="path-1" points="0.0243902439 49.5934959 49.6422764 49.5934959 49.6422764 0.212195122 0.0243902439 0.212195122"></polygon>
    </defs>
    <g id="home" stroke="none" stroke-width="1" fill="none" fill-rule="evenodd" transform="translate(-865.000000, -2434.000000)">
        <g id="Group-5" transform="translate(0.000000, 2113.000000)">
            <g id="ad-council" transform="translate(865.000000, 321.000000)">
                <path d="M38.4345528,33.1784553 C38.3922764,33.1178862 38.2947154,33.0878049 38.1926829,33.2195122 C38.1926829,33.2195122 37.3304878,34.6121951 35.2898374,35.0902439 C35.2898374,35.0902439 35.2321138,35.1170732 35.2020325,35.1609756 C35.151626,35.2317073 35.1638211,35.3325203 35.3394309,35.3337398 C35.6560976,35.3361789 38.2414634,35.3337398 38.2414634,35.3337398 C38.2414634,35.3337398 38.345935,35.345122 38.4093496,35.2825203 C38.4552846,35.2369919 38.4609756,35.1386179 38.4609756,34.9678862 L38.4609756,33.3174797 C38.4609756,33.3174797 38.4739837,33.2345528 38.4345528,33.1784553" id="Fill-1" fill="#FFFFFF"></path>
                <path d="M34.3560976,19.1146341 C34.3560976,19.1146341 29.9658537,18.8703252 30.0878049,25.8215447 C30.2093496,32.7735772 33.404878,32.4313008 34.1853659,32.4313008 C34.9658537,32.4313008 38.6487805,32.0898374 38.4536585,25.7235772 C38.2581301,19.3581301 35.8678862,19.1873984 34.3560976,19.1146341" id="Fill-2" fill="#FFFFFF"></path>
                <mask id="mask-2" fill="white">
                    <use xlink:href="#path-1"></use>
                </mask>
                <g id="Clip-4"></g>
                <polyline id="Fill-3" fill="#FFFFFF" mask="url(#mask-2)" points="10.5272358 24.2605691 17.5963415 24.2605691 13.7463415 13.6756098 10.5272358 24.2605691"></polyline>
                <path d="M47.7947154,35.1138211 C48.0873984,34.9926829 49.6422764,34.0898374 49.6422764,32.5288618 L49.6422764,2.57804878 C49.6422764,2.57804878 49.4410569,0.26097561 46.8560976,0.212195122 L3.23455285,0.212195122 C3.23455285,0.212195122 0.758943089,0.126829268 0.673577236,3.11463415 C0.588211382,6.10243902 0.614634146,35.9800813 0.614634146,35.9800813 C0.614634146,35.9800813 2.62479675,35.8223577 3.50284553,33.5776423 C4.38089431,31.3341463 10.551626,12.0902439 10.551626,12.0902439 C10.551626,12.0902439 10.6922764,11.404878 10.3321138,10.8947154 C10.0394309,10.4804878 10.5272358,10.4317073 10.7223577,10.4073171 C10.9174797,10.3829268 16.1609756,10.4073171 16.1609756,10.4073171 C16.1609756,10.4073171 17.2857724,10.3898374 17.7463415,11.7731707 C18.2613821,13.3186992 25.2195122,32.4223577 25.3552846,32.7695122 C25.5028455,33.148374 27.2113821,36.8264228 31.795122,35.3825203 C31.795122,35.3825203 25.5471545,34.304878 25.5512195,26.0166667 C25.5552846,18.1077236 31.9898374,16.4069106 34.3804878,16.553252 C36.0845528,16.6577236 37.404878,17.2361789 38.4292683,17.9195122 L38.4292683,12.3581301 C38.4292683,12.3581301 38.4776423,11.4804878 37.8439024,10.7 L42.7215447,10.7 L42.7215447,33.4800813 C42.7215447,33.4800813 42.5264228,35.1386179 44.1849593,35.2853659 C44.1849593,35.2853659 46.9162602,35.1101626 46.9845528,36.6512195 C47.0581301,38.3105691 46.9845528,48.3093496 46.9845528,48.3093496 C46.9845528,48.3093496 46.9845528,49.0654472 46.7898374,49.3097561 L49.550813,49.3097561 C49.550813,49.3097561 49.4528455,49.0170732 49.4288618,48.3577236 C49.4044715,47.6995935 49.4288618,35.7731707 49.4288618,35.7731707 C49.4288618,35.7731707 49.5178862,35.3825203 48.9166667,35.3825203 C48.2581301,35.3825203 47.7707317,35.3337398 47.7707317,35.3337398 C47.7707317,35.3337398 47.650813,35.3134146 47.6569106,35.2369919 C47.6634146,35.1609756 47.7947154,35.1138211 47.7947154,35.1138211" id="Fill-5" fill="#FFFFFF" mask="url(#mask-2)"></path>
                <path d="M21.4833333,34.9321138 C21.2987805,34.3780488 18.7227642,27.4573171 18.698374,27.2134146 C18.698374,27.2134146 18.600813,26.9447154 18.2837398,26.9203252 C17.9666667,26.8955285 10.0528455,26.9203252 10.0528455,26.9203252 C10.0528455,26.9203252 9.76056911,26.8955285 9.63821138,27.2369919 C9.51666667,27.5784553 8.24837398,31.7739837 8.24837398,31.7739837 C8.24837398,31.7739837 7.54105691,33.9443089 9.07764228,35.1638211 C9.07764228,35.1638211 9.27235772,35.3593496 9.02845528,35.3841463 C9.02845528,35.3841463 3.69918699,34.7406504 1.39471545,38.1150407 C-0.869105691,41.4300813 -0.995528455,46.0418699 4.1995935,48.7256098 C4.1995935,48.7256098 6.39471545,49.8227642 9.34593496,49.0906504 L9.73617886,47.9686992 C9.73617886,47.9686992 9.84593496,47.6418699 10.1430894,47.946748 C10.1638211,47.9743902 10.1764228,47.9918699 10.1768293,47.9918699 C10.2764228,48.098374 10.4134146,48.2426829 10.5971545,48.4 C11.1593496,48.8821138 12.1650407,49.4869919 13.9341463,49.5044715 C13.949187,49.5044715 13.9642276,49.5028455 13.9792683,49.5028455 C13.9943089,49.5028455 14.0093496,49.5044715 14.0247967,49.5044715 C16.3723577,49.4804878 17.3772358,48.4231707 17.7821138,47.9918699 C17.7833333,47.9878049 17.7853659,47.9833333 17.7869919,47.9784553 C18.5857724,47.1304878 19.097561,45.895935 19.0012195,44.1626016 C18.998374,44.1134146 18.9930894,44.0691057 18.9878049,44.0227642 C18.9857724,43.9325203 18.9825203,43.8410569 18.9760163,43.748374 C18.7784553,40.8223577 16.5126016,39.2117886 14.0247967,39.2361789 C14.0093496,39.2361789 13.9943089,39.2369919 13.9792683,39.2378049 C13.9642276,39.2369919 13.949187,39.2361789 13.9341463,39.2361789 C11.4463415,39.2117886 9.1804878,40.8223577 8.98252033,43.748374 C8.97642276,43.8410569 8.97317073,43.9325203 8.97073171,44.0227642 C8.96544715,44.0691057 8.96056911,44.1134146 8.95772358,44.1626016 C8.90406504,45.1203252 9.04186992,45.9211382 9.30569106,46.5939024 C9.32479675,46.6422764 9.35081301,46.6947154 9.37601626,46.7471545 C9.4300813,46.904065 9.46788618,46.9930894 9.46788618,46.9930894 C9.46788618,46.9930894 6.88252033,48.2865854 4.66300813,46.4808943 C4.66300813,46.4808943 2.29715447,44.6280488 2.76056911,41.4569106 C3.22398374,38.2857724 5.27276423,37.2617886 6.5898374,37.1638211 C7.90691057,37.0670732 8.88252033,37.3837398 10.150813,37.9443089 C10.150813,37.9443089 10.4430894,38.0422764 10.4430894,37.75 C10.4430894,37.4569106 10.4186992,36.3105691 10.5166667,35.9939024 C10.6138211,35.6760163 10.5410569,35.3345528 11.6873984,35.2861789 L21.3869919,35.2861789 C21.3869919,35.2861789 21.6105691,35.3134146 21.4833333,34.9321138 L21.4833333,34.9321138 Z M11.8361789,42.1873984 C12.3020325,40.5329268 13.8418699,40.503252 13.9792683,40.504065 C14.1166667,40.503252 15.6565041,40.5329268 16.1227642,42.1873984 C16.6101626,43.9191057 16.5369919,46.2365854 15.6345528,47.4069106 C15.6345528,47.4069106 15.0573171,48.2109756 13.9792683,48.2325203 C12.901626,48.2109756 12.3239837,47.4069106 12.3239837,47.4069106 C11.4215447,46.2365854 11.348374,43.9191057 11.8361789,42.1873984 L11.8361789,42.1873984 Z" id="Fill-6" fill="#FFFFFF" mask="url(#mask-2)"></path>
                <path d="M22.1463415,40.6995935 C22.1463415,40.6995935 22.2926829,39.4800813 21.3658537,39.4560976 C20.4390244,39.4317073 19.6943089,39.5410569 19.6943089,39.5410569 C19.6943089,39.5410569 19.3528455,39.6142276 19.4747967,39.9065041 C19.5971545,40.199187 19.6943089,40.3215447 19.6943089,40.7845528 C19.6943089,41.2479675 19.645935,46.5650407 19.7430894,47.0528455 C19.8410569,47.5410569 20.3902439,49.3097561 22.7317073,49.4804878 C22.7317073,49.4804878 23.9512195,49.7479675 25.1219512,48.8463415 C25.1219512,48.8463415 25.6341463,48.3825203 25.6341463,48.7723577 C25.6341463,49.1630081 25.7073171,49.2605691 25.9752033,49.2605691 L27.5109756,49.2605691 C27.5109756,49.2605691 27.8288618,49.2739837 27.8288618,48.7 L27.8288618,43.1955285 C27.8288618,43.1955285 27.8093496,42.8780488 27.8800813,42.4621951 C27.9569106,42.0126016 28.4853659,41.0028455 29.7556911,41.0406504 C31.3654472,41.0902439 31.3902439,42.5780488 31.3902439,43.1878049 L31.3902439,48.1873984 C31.3902439,48.1873984 31.3410569,48.748374 31.2434959,48.9191057 C31.145935,49.0898374 31.0239837,49.2853659 31.3902439,49.2853659 L33.7028455,49.2853659 C33.7028455,49.2853659 33.9589431,49.2723577 33.849187,49.004878 C33.7394309,48.7357724 33.7150407,48.5658537 33.7276423,48.4073171 C33.7394309,48.248374 33.7276423,42.2117886 33.7276423,42.2117886 C33.7276423,42.2117886 33.6154472,39.597561 30.6337398,39.4069106 C30.6337398,39.4069106 29.5361789,39.2845528 28.3414634,40.0658537 C28.3414634,40.0658537 27.7800813,40.6512195 27.7800813,40.2365854 L27.7800813,39.7243902 C27.7800813,39.7243902 27.8536585,39.5292683 27.4142276,39.5044715 C26.9752033,39.4800813 25.8044715,39.5292683 25.8044715,39.5292683 C25.8044715,39.5292683 25.5121951,39.5044715 25.6097561,39.7727642 C25.7073171,40.0414634 25.7073171,40.3341463 25.7073171,40.6512195 L25.7073171,46.2609756 C25.7073171,46.2609756 25.3170732,48.2609756 23.3654472,47.797561 C23.3654472,47.797561 22.1707317,47.4560976 22.1219512,46.0894309 L22.1463415,40.6995935" id="Fill-7" fill="#FFFFFF" mask="url(#mask-2)"></path>
                <path d="M42.1361789,39.5536585 C42.1361789,39.5536585 42.1849593,40.4556911 42.1609756,40.601626 C42.1361789,40.7487805 42.2097561,41.1138211 41.8191057,40.9439024 C41.4288618,40.7731707 39.5264228,39.9682927 38.0146341,41.2853659 C36.7313008,42.402439 35.8735772,45.4203252 38.3126016,47.5670732 C38.3126016,47.5670732 39.795122,48.7239837 41.9898374,47.9678862 C41.9898374,47.9678862 42.3317073,47.9186992 42.2581301,48.2117886 C42.1849593,48.504878 42.0386179,49.0406504 42.0386179,49.0406504 C42.0386179,49.0406504 42.0386179,49.3097561 41.4776423,49.4069106 C40.9166667,49.5044715 38.3556911,50.1634146 36.3069106,48.3341463 C36.3069106,48.3341463 33.9410569,46.8215447 34.550813,43.4069106 C34.550813,43.4069106 35.1853659,40.0898374 38.6731707,39.2845528 C38.6731707,39.2845528 40.5264228,38.9195122 41.8922764,39.3585366 C41.8922764,39.3585366 42.1117886,39.3821138 42.1361789,39.5536585" id="Fill-8" fill="#FFFFFF" mask="url(#mask-2)"></path>
                <path d="M45.7947154,48.8463415 C45.6723577,48.3825203 45.6971545,48.2609756 45.6971545,48.1142276 L45.6971545,39.8707317 C45.6971545,39.8707317 45.7691057,39.5410569 45.4288618,39.5044715 L43.399187,39.4069106 C43.399187,39.4069106 42.9845528,39.4560976 43.1313008,39.6752033 C43.2772358,39.8943089 43.2528455,39.9918699 43.2772358,40.4313008 C43.2987805,40.8186992 43.2821138,46.9512195 43.2780488,48.3768293 C43.2674797,48.4817073 43.2430894,48.6207317 43.1865854,48.8333333 C43.1792683,48.8621951 43.1780488,48.8833333 43.1735772,48.9081301 C43.1674797,48.9329268 43.1630081,48.9573171 43.1605691,48.9821138 L43.1605691,48.9890244 C43.1581301,49.0199187 43.1585366,49.0512195 43.1654472,49.0804878 C43.1963415,49.2845528 43.3821138,49.2723577 43.3821138,49.2723577 L43.4065041,49.2723577 C43.4406504,49.2788618 43.4780488,49.2837398 43.5211382,49.2853659 L45.5995935,49.2853659 C45.5995935,49.2853659 45.9170732,49.3097561 45.7947154,48.8463415" id="Fill-10" fill="#FFFFFF" mask="url(#mask-2)"></path>
            </g>
        </g>
    </g>
</svg>