<?xml version="1.0" encoding="UTF-8"?>
<svg width="1024px" height="288px" viewBox="0 0 1024 288" version="1.1" xmlns="http://www.w3.org/2000/svg" xmlns:xlink="http://www.w3.org/1999/xlink">
    <!-- Generator: sketchtool 48.2 (47327) - http://www.bohemiancoding.com/sketch -->
    <title>5F03D00D-8FD7-4424-BC10-E39EA0687139</title>
    <desc>Created with sketchtool.</desc>
    <defs></defs>
    <g id="home" stroke="none" stroke-width="1" fill="none" fill-rule="evenodd" transform="translate(0.000000, -327.000000)">
        <path d="M478.932056,327.174716 C479.04021,327.06101 479.094802,327 479.094802,327 C479.094802,327 490.852349,340.139808 511.108231,340.139808 C531.364114,340.139808 543.121661,327 543.121661,327 C543.121661,327 554.879207,340.139808 575.13509,340.139808 C595.390972,340.139808 607.148519,327 607.148519,327 C607.148519,327 618.906066,340.139808 639.161948,340.139808 C659.417831,340.139808 671.175378,327 671.175378,327 C671.175378,327 682.932924,340.139808 703.188807,340.139808 C723.444689,340.139808 735.202236,327 735.202236,327 C735.202236,327 746.959783,340.139808 767.215665,340.139808 C787.471548,340.139808 799.229095,327 799.229095,327 C799.229095,327 810.986641,340.139808 831.242524,340.139808 C851.498406,340.139808 863.255953,327 863.255953,327 C863.255953,327 875.0135,340.139808 895.269382,340.139808 C913.106238,340.139808 924.353355,329.951003 926.785306,327.517438 L926.785132,327 C926.785132,327 926.86873,327.093426 927.033972,327.264523 C927.199214,327.093426 927.282812,327 927.282812,327 L927.282812,327.517613 C929.715125,329.951489 940.962132,340.139808 958.798561,340.139808 C979.054443,340.139808 990.81199,327 990.81199,327 C990.81199,327 1002.56954,340.139808 1022.82542,340.139808 C1043.0813,340.139808 1054.83885,327 1054.83885,327 C1054.83885,327 1066.5964,340.139808 1086.85228,340.139808 C1107.10816,340.139808 1118.86571,327 1118.86571,327 C1118.86571,327 1130.62325,340.139808 1150.87914,340.139808 C1171.13502,340.139808 1182.89257,327 1182.89257,327 C1182.89257,327 1194.65011,340.139808 1214.906,340.139808 C1235.16188,340.139808 1246.91942,327 1246.91942,327 C1246.91942,327 1258.67697,340.139808 1278.93285,340.139808 C1299.18874,340.139808 1310.94628,327 1310.94628,327 C1310.94628,327 1322.70383,340.139808 1342.95971,340.139808 C1363.21559,340.139808 1374.97314,327 1374.97314,327 C1374.97314,327 1386.73069,340.139808 1406.98657,340.139808 C1427.24245,340.139808 1439,327 1439,327 L1439,615 L927.282812,615 L415.16489,615 L-32.7851318,615 L-544.903053,615 L-545,327 C-545,327 -533.242453,340.139808 -512.986571,340.139808 C-492.730688,340.139808 -480.973141,327 -480.973141,327 C-480.973141,327 -469.215595,340.139808 -448.959712,340.139808 C-428.70383,340.139808 -416.946283,327 -416.946283,327 C-416.946283,327 -405.188736,340.139808 -384.932854,340.139808 C-364.676971,340.139808 -352.919424,327 -352.919424,327 C-352.919424,327 -341.161878,340.139808 -320.905995,340.139808 C-300.650113,340.139808 -288.892566,327 -288.892566,327 C-288.892566,327 -277.135019,340.139808 -256.879137,340.139808 C-236.623254,340.139808 -224.865707,327 -224.865707,327 C-224.865707,327 -213.108161,340.139808 -192.852278,340.139808 C-172.596396,340.139808 -160.838849,327 -160.838849,327 C-160.838849,327 -149.081302,340.139808 -128.82542,340.139808 C-108.569537,340.139808 -96.8119903,327 -96.8119903,327 C-96.8119903,327 -85.0544435,340.139808 -64.798561,340.139808 C-46.9617057,340.139808 -35.714588,329.951003 -33.2826376,327.517438 L-33.2828117,327 C-33.2828117,327 -33.1992137,327.093426 -33.0339718,327.264523 C-32.8687298,327.093426 -32.7851318,327 -32.7851318,327 L-32.7851318,327.517613 C-30.3528185,329.951489 -19.105812,340.139808 -1.26938247,340.139808 C18.9865,340.139808 30.7440468,327 30.7440468,327 C30.7440468,327 42.5015936,340.139808 62.7574761,340.139808 C83.0133585,340.139808 94.7709053,327 94.7709053,327 C94.7709053,327 106.528452,340.139808 126.784335,340.139808 C147.040217,340.139808 158.797764,327 158.797764,327 C158.797764,327 170.555311,340.139808 190.811193,340.139808 C211.067076,340.139808 222.824622,327 222.824622,327 C222.824622,327 234.582169,340.139808 254.838052,340.139808 C275.093934,340.139808 286.851481,327 286.851481,327 C286.851481,327 298.609028,340.139808 318.86491,340.139808 C339.120793,340.139808 350.878339,327 350.878339,327 C350.878339,327 362.635886,340.139808 382.891769,340.139808 C403.147651,340.139808 414.905198,327 414.905198,327 C414.905198,327 414.95981,327.061032 415.068002,327.174778 L415.067944,327 C415.067944,327 426.794006,340.104622 447.000003,340.139737 C467.205995,340.104621 478.932056,327 478.932056,327 L478.932056,327.174716 Z" id="background-wave" fill="#2FB1EB"></path>
    </g>
</svg>