<?xml version="1.0" encoding="UTF-8"?>
<svg width="111px" height="123px" viewBox="0 0 111 123" version="1.1" xmlns="http://www.w3.org/2000/svg" xmlns:xlink="http://www.w3.org/1999/xlink">
    <!-- Generator: sketchtool 48.2 (47327) - http://www.bohemiancoding.com/sketch -->
    <title>79176692-7384-4D5C-8725-C899BFA7A741</title>
    <desc>Created with sketchtool.</desc>
    <defs></defs>
    <g id="home" stroke="none" stroke-width="1" fill="none" fill-rule="evenodd" transform="translate(-172.000000, -217.000000)">
        <g id="boat" transform="translate(172.000000, 217.000000)">
            <g id="Group-4">
                <rect id="Rectangle-48" fill="#2FB1EB" x="60.4595745" y="0.450549451" width="2.12553191" height="98.1289533" rx="1.06276596"></rect>
                <path d="M58.5893171,81.7105315 C58.5893171,84.471488 56.3481638,86.7096855 53.5951796,86.7096855 L20.7777187,86.7096851 C18.0195328,86.7096851 16.7683457,84.6981477 17.9799973,82.2231576 L56.3929028,3.75871676 C57.6059499,1.28087609 58.5893188,1.51037318 58.5893187,4.27134341 L58.5893171,81.7105315 Z" id="Line" fill="#FF675B"></path>
                <path d="M99.1022598,74.1505187 C99.1022597,76.9117142 96.8545872,79.1501054 94.1023739,79.1501054 L67.7319345,79.1501051 C64.9705739,79.150105 63.7332205,77.1535512 64.9728822,74.681397 L96.8614278,11.0887176 C98.0990059,8.62071826 99.1022611,8.85021845 99.1022611,11.6195962 L99.1022598,74.1505187 Z" id="Line-Copy" fill="#FF675B" transform="translate(81.796855, 44.264952) scale(-1, 1) translate(-81.796855, -44.264952) "></path>
                <path d="M1.90863824,87.209005 L12.0446806,87.209005 C12.0446806,89.0357611 12.0446806,90.9648387 12.0446805,92.478677 C12.0446805,94.3831066 13.5363835,96.3997996 16.693268,96.2160103 L67.9843885,96.2160103 C72.9582075,96.2160103 76.9914894,92.1834367 76.9914894,87.209005 L109.117887,87.209005 C109.105709,90.5134049 109.082463,94.2767051 109.082463,98.5541341 C109.082462,129.134746 53.079893,122.057678 53.079893,122.057678 C53.079893,122.057678 15.4348334,119.945298 4.87519085,101.503928 C2.28471076,96.9811044 1.88849257,91.517658 1.90863824,87.209005 Z" id="Fill-1" fill="#4A4A4A"></path>
                <rect id="Rectangle-49" fill="#2FB1EB" x="74.6297872" y="81.7573964" width="36.3702128" height="5.92566143" rx="2.96283071"></rect>
                <rect id="Rectangle-49-Copy" fill="#2FB1EB" x="0" y="86.7349521" width="14.6425532" height="5.92566143" rx="2.96283071"></rect>
            </g>
        </g>
    </g>
</svg>