<?xml version="1.0" encoding="UTF-8"?>
<svg width="66px" height="50px" viewBox="0 0 66 50" version="1.1" xmlns="http://www.w3.org/2000/svg" xmlns:xlink="http://www.w3.org/1999/xlink">
    <!-- Generator: sketchtool 48.2 (47327) - http://www.bohemiancoding.com/sketch -->
    <title>24F50599-EBF6-4623-80C8-7F0A4B62C4EF</title>
    <desc>Created with sketchtool.</desc>
    <defs>
        <polygon id="path-1" points="5.31854213 9.04634581 10.5968958 9.04634581 10.5968958 0.304021836 0.0401884701 0.304021836 0.0401884701 9.04634581"></polygon>
    </defs>
    <g id="home" stroke="none" stroke-width="1" fill="none" fill-rule="evenodd" transform="translate(-719.000000, -2521.000000)">
        <g id="Group-5" transform="translate(0.000000, 2113.000000)">
            <g id="breakthrough-us" transform="translate(719.000000, 408.000000)">
                <polyline id="Fill-1" fill="#FFFFFE" points="21.9702328 7.19669118 23.8555543 7.67776292 25.9421397 0.95923574 23.3607539 0.300790998 21.9702328 7.19669118"></polyline>
                <polyline id="Fill-2" fill="#FFFFFE" points="27.9377384 9.71997549 29.082949 11.2775624 35.0150887 7.40766488 33.4470953 5.27563503 27.9377384 9.71997549"></polyline>
                <polyline id="Fill-3" fill="#FFFFFE" points="30.306286 12.5805593 31.1987916 14.2922571 37.6562749 11.3586564 36.4342239 9.01565285 30.306286 12.5805593"></polyline>
                <polyline id="Fill-4" fill="#FFFFFE" points="31.7694678 15.6918561 32.229867 17.5625111 39.2046563 16.2129902 38.5722506 13.6506127 31.7694678 15.6918561"></polyline>
                <polyline id="Fill-5" fill="#FFFFFE" points="32.3716519 18.9566176 32.3584701 20.882197 39.4538248 21.2550357 39.4727938 18.6183489 32.3716519 18.9566176"></polyline>
                <polyline id="Fill-6" fill="#FFFFFE" points="31.8061197 22.3302585 31.2290133 24.1692513 37.9147672 26.5536096 38.7037472 24.0345254 31.8061197 22.3302585"></polyline>
                <polyline id="Fill-7" fill="#FFFFFE" points="30.5933925 25.471279 29.5716408 27.1106061 35.4430155 31.0687054 36.8415743 28.8252117 30.5933925 25.471279"></polyline>
                <polyline id="Fill-8" fill="#FFFFFE" points="28.4904102 28.1706439 27.032694 29.447471 31.4916851 34.9185717 33.4888914 33.1713347 28.4904102 28.1706439"></polyline>
                <polyline id="Fill-9" fill="#FFFFFE" points="25.8521175 30.2503342 24.132051 31.1520611 27.1680488 37.507119 29.5243792 36.273262 25.8521175 30.2503342"></polyline>
                <polyline id="Fill-10" fill="#FFFFFE" points="22.992306 31.5468694 21.0754767 31.8838458 21.9985255 38.853086 24.6226718 38.3920455 22.992306 31.5468694"></polyline>
                <polyline id="Fill-11" fill="#FFFFFE" points="19.5544235 32.0098485 17.6121951 31.8919229 16.8531153 38.880225 19.513592 39.0414439 19.5544235 32.0098485"></polyline>
                <polyline id="Fill-12" fill="#FFFFFE" points="16.2239246 31.6131016 14.3685033 31.0302585 11.9086475 37.6237522 14.4498448 38.4230615 16.2239246 31.6131016"></polyline>
                <polyline id="Fill-13" fill="#FFFFFE" points="13.1165521 30.2639037 11.5279823 29.1512032 7.16029933 34.6956439 9.33529933 36.2186609 13.1165521 30.2639037"></polyline>
                <polyline id="Fill-14" fill="#FFFFFE" points="10.4744013 28.1483512 9.21666297 26.678643 3.58802661 30.9685495 5.31034368 32.9816845 10.4744013 28.1483512"></polyline>
                <polyline id="Fill-15" fill="#FFFFFE" points="8.46111973 25.1885807 7.68757206 23.4203431 1.0439357 25.9139037 2.10233925 28.3341243 8.46111973 25.1885807"></polyline>
                <polyline id="Fill-16" fill="#FFFFFE" points="0 20.7717023 0.361696231 23.3838347 7.3413082 22.0452986 7.07702882 20.1371658 0 20.7717023"></polyline>
                <polyline id="Fill-17" fill="#FFFFFE" points="7.15965632 18.6422571 7.40818182 16.7312166 0.408957871 15.5164216 0.0691241685 18.1311386 7.15965632 18.6422571"></polyline>
                <polyline id="Fill-18" fill="#FFFFFE" points="7.86890244 15.1474599 8.62187361 13.3708222 2.20039911 10.3606506 1.16996674 12.7918561 7.86890244 15.1474599"></polyline>
                <polyline id="Fill-19" fill="#FFFFFE" points="9.34751663 12.2109514 10.626153 10.7586898 5.48652993 5.9056484 3.73559867 7.8932598 9.34751663 12.2109514"></polyline>
                <polyline id="Fill-20" fill="#FFFFFE" points="11.6192905 9.8272393 13.25898 8.78917112 9.70696231 2.70291889 7.46155211 4.12319519 11.6192905 9.8272393"></polyline>
                <polyline id="Fill-21" fill="#FFFFFE" points="14.7771397 8.17434269 16.6303104 7.58245321 14.7572062 0.802863191 12.2208315 1.61315731 14.7771397 8.17434269"></polyline>
                <polyline id="Fill-22" fill="#FFFFFE" points="18.3757761 7.09298128 20.3212195 7.03708779 20.4395344 0.00936942959 17.774878 0.086263369 18.3757761 7.09298128"></polyline>
                <polyline id="Fill-23" fill="#FFFFFF" points="25.2132816 6.36604278 25.9717184 8.13977273 32.6356098 5.7004902 31.5981042 3.27219251 25.2132816 6.36604278"></polyline>
                <path d="M11.8093016,46.9004568 C12.637184,46.9004568 13.3033481,46.2510584 13.3033481,45.3099153 C13.3033481,44.3972037 12.6944124,43.7290664 11.8093016,43.7290664 C10.9814191,43.7290664 10.3249002,44.3594029 10.3249002,45.3099153 C10.3249002,46.2510584 10.9910643,46.9004568 11.8093016,46.9004568 L11.8093016,46.9004568 Z M8.89772727,40.6894942 L10.3821286,40.6894942 L10.3821286,43.6725267 C10.8100554,43.2395945 11.2955322,43.0421903 11.9234368,43.0421903 C13.2081818,43.0421903 14.1595233,44.0395499 14.1595233,45.3099153 C14.1595233,46.5806038 13.2175055,47.568594 11.8665299,47.568594 C11.247949,47.568594 10.8100554,47.3896056 10.3821286,46.9473039 L10.3821286,47.4652072 L8.89772727,47.4652072 L8.89772727,46.8158088 L9.56389135,46.8158088 L9.56389135,41.348262 L8.89772727,41.348262 L8.89772727,40.6894942 L8.89772727,40.6894942 Z" id="Fill-24" fill="#FFFFFF"></path>
                <path d="M17.4135033,43.0328209 C17.4707317,43.0328209 17.5372838,43.0421903 17.6038359,43.0421903 L17.6038359,43.7668672 L17.3755654,43.7668672 C16.509745,43.7668672 15.9673614,44.2279078 15.9673614,45.0840798 L15.9673614,46.8158088 L16.6428492,46.8158088 L16.6428492,47.4652072 L14.4829601,47.4652072 L14.4829601,46.8158088 L15.1584479,46.8158088 L15.1584479,43.8043449 L14.4829601,43.8043449 L14.4829601,43.1549465 L15.9673614,43.1549465 L15.9673614,43.8327763 C16.2907982,43.2773953 16.7283703,43.0328209 17.4135033,43.0328209" id="Fill-25" fill="#FFFFFF"></path>
                <path d="M21.5050111,44.9147839 C21.3812306,44.1241979 20.8674612,43.7009581 20.0395787,43.7009581 C19.2116962,43.7009581 18.6979268,44.1241979 18.5741463,44.9147839 L21.5050111,44.9147839 L21.5050111,44.9147839 Z M20.030255,47.5779635 C18.6789579,47.5779635 17.7272949,46.6933601 17.7272949,45.2627451 C17.7272949,43.9267937 18.6313747,43.0421903 20.0395787,43.0421903 C21.4001996,43.0421903 22.3518625,43.9642714 22.3518625,45.4417335 L22.3518625,45.5454434 L18.5741463,45.5454434 C18.6406984,46.3641377 19.2878936,46.9004568 20.1440687,46.9004568 C20.6864523,46.9004568 21.1812528,46.6465129 21.4857206,46.1851493 L22.247051,46.1851493 C21.8474169,47.0510138 21.0195344,47.5779635 20.030255,47.5779635 L20.030255,47.5779635 Z" id="Fill-26" fill="#FFFFFF"></path>
                <path d="M25.1775942,46.9004568 C25.9958315,46.9004568 26.6619956,46.2604278 26.6619956,45.3099153 C26.6619956,44.3594029 25.9958315,43.7290664 25.1775942,43.7290664 C24.2928049,43.7290664 23.6838692,44.3972037 23.6838692,45.3099153 C23.6838692,46.2510584 24.3497118,46.9004568 25.1775942,46.9004568 L25.1775942,46.9004568 Z M28.0891685,46.8158088 L28.0891685,47.4652072 L26.6047672,47.4652072 L26.6047672,46.9004568 C26.2433925,47.3427585 25.7199778,47.568594 25.063459,47.568594 C23.7980044,47.568594 22.8273725,46.5899733 22.8273725,45.3099153 C22.8273725,44.0395499 23.7883592,43.0421903 25.063459,43.0421903 C25.7010089,43.0421903 26.2147783,43.2677028 26.6047672,43.719697 L26.6047672,43.1549465 L28.0891685,43.1549465 L28.0891685,43.8043449 L27.4233259,43.8043449 L27.4233259,46.8158088 L28.0891685,46.8158088 L28.0891685,46.8158088 Z" id="Fill-27" fill="#FFFFFF"></path>
                <polyline id="Fill-28" fill="#FFFFFF" points="28.5932927 41.348262 28.5932927 40.6894942 30.0490798 40.6894942 30.0490798 45.0937723 31.6858758 43.8043449 31.0862639 43.8043449 31.0862639 43.1549465 33.1513082 43.1549465 33.1513082 43.8043449 32.6754767 43.8043449 30.9721286 45.1687277 32.6372173 46.8158088 33.1513082 46.8158088 33.1513082 47.4652072 31.1245233 47.4652072 31.1245233 46.8158088 31.6572616 46.8158088 30.0490798 45.2440062 30.0490798 46.8158088 30.6104324 46.8158088 30.6104324 47.4652072 28.5932927 47.4652072 28.5932927 46.8158088 29.2594568 46.8158088 29.2594568 41.348262 28.5932927 41.348262"></polyline>
                <path d="M34.9681486,46.0817625 C34.9681486,46.6933601 34.987439,46.8158088 35.4729157,46.8158088 C35.5298226,46.8158088 35.6439579,46.7967469 35.8249667,46.7686386 L35.8249667,47.4555147 C35.60602,47.4933155 35.3774279,47.5026849 35.1398337,47.5026849 C34.4547007,47.5026849 34.197816,47.3146502 34.197816,46.6746212 L34.197816,43.8043449 L33.4078714,43.8043449 L33.4078714,43.1549465 L34.197816,43.1549465 L34.197816,41.5456662 L34.9681486,41.5456662 L34.9681486,43.1549465 L35.8249667,43.1549465 L35.8249667,43.8043449 L34.9681486,43.8043449 L34.9681486,45.9405749 L34.9681486,46.0817625" id="Fill-29" fill="#FFFFFF"></path>
                <path d="M41.4101996,46.8158088 L41.4101996,47.4652072 L39.2499889,47.4652072 L39.2499889,46.8158088 L39.9254767,46.8158088 L39.9254767,44.8773061 C39.9254767,44.2182152 39.8782151,43.7759135 39.1548226,43.7759135 C38.6886364,43.7759135 38.2510643,44.0208111 37.784878,44.5099599 L37.784878,46.8158088 L38.4603659,46.8158088 L38.4603659,47.4652072 L36.3001552,47.4652072 L36.3001552,46.8158088 L36.9663193,46.8158088 L36.9663193,41.348262 L36.3001552,41.348262 L36.3001552,40.6894942 L37.784878,40.6894942 L37.784878,43.7668672 C38.2890022,43.2773953 38.7934479,43.0421903 39.3737694,43.0421903 C39.8875388,43.0421903 40.2775277,43.230225 40.5154435,43.550078 C40.7343902,43.8418226 40.7440355,44.1526292 40.7440355,44.5009135 L40.7440355,44.5855615 L40.7440355,46.8158088 L41.4101996,46.8158088" id="Fill-30" fill="#FFFFFF"></path>
                <path d="M44.7497007,43.0328209 C44.8066075,43.0328209 44.8734812,43.0421903 44.9400333,43.0421903 L44.9400333,43.7668672 L44.7114412,43.7668672 C43.8456208,43.7668672 43.3035588,44.2279078 43.3035588,45.0840798 L43.3035588,46.8158088 L43.9790466,46.8158088 L43.9790466,47.4652072 L41.8188359,47.4652072 L41.8188359,46.8158088 L42.4946452,46.8158088 L42.4946452,43.8043449 L41.8188359,43.8043449 L41.8188359,43.1549465 L43.3035588,43.1549465 L43.3035588,43.8327763 C43.6269956,43.2773953 44.0645676,43.0328209 44.7497007,43.0328209" id="Fill-31" fill="#FFFFFF"></path>
                <path d="M47.4040687,46.8910873 C48.2509202,46.8910873 48.9456984,46.2604278 48.9456984,45.3005459 C48.9456984,44.340664 48.2509202,43.7100045 47.4040687,43.7100045 C46.5478936,43.7100045 45.8627605,44.3690954 45.8627605,45.3005459 C45.8627605,46.2323195 46.5478936,46.8910873 47.4040687,46.8910873 L47.4040687,46.8910873 Z M47.4040687,43.0421903 C48.78398,43.0421903 49.7925499,44.0301805 49.7925499,45.3005459 C49.7925499,46.5709113 48.78398,47.568594 47.4040687,47.568594 C46.0244789,47.568594 45.0159091,46.5709113 45.0159091,45.3005459 C45.0159091,44.0301805 46.0244789,43.0421903 47.4040687,43.0421903 L47.4040687,43.0421903 Z" id="Fill-32" fill="#FFFFFF"></path>
                <path d="M49.9729157,43.8043449 L49.9729157,43.1549465 L51.4573171,43.1549465 L51.4573171,45.7428476 C51.4573171,46.4016154 51.5049002,46.8439171 52.2282927,46.8439171 C52.6944789,46.8439171 53.132051,46.5993427 53.5982373,46.1098708 L53.5982373,43.8043449 L52.9227494,43.8043449 L52.9227494,43.1549465 L54.416796,43.1549465 L54.416796,46.8064394 L55.0826386,46.8064394 L55.0826386,47.4652072 L53.5982373,47.4652072 L53.5982373,46.8439171 C53.0941131,47.333389 52.5896674,47.5779635 52.0093459,47.5779635 C51.0104213,47.5779635 50.6390798,47.0416444 50.6390798,46.0252228 L50.6390798,43.8043449 L49.9729157,43.8043449" id="Fill-33" fill="#FFFFFF"></path>
                <g id="Group-37" transform="translate(55.299335, 40.385472)">
                    <mask id="mask-2" fill="white">
                        <use xlink:href="#path-1"></use>
                    </mask>
                    <g id="Clip-35"></g>
                    <path d="M2.3904102,6.5149844 C3.20864745,6.5149844 3.87481153,5.87495544 3.87481153,4.92444296 C3.87481153,3.97393048 3.20864745,3.34359403 2.3904102,3.34359403 C1.50562084,3.34359403 0.896685144,4.01173128 0.896685144,4.92444296 C0.896685144,5.86558601 1.56252772,6.5149844 2.3904102,6.5149844 L2.3904102,6.5149844 Z M4.63614191,6.57152406 C4.63614191,7.21155303 4.62649667,7.71944073 4.41719512,8.10552585 C4.09375831,8.68869207 3.38001109,9.04634581 2.42834812,9.04634581 C1.33425721,9.04634581 0.563603104,8.55687389 0.278104213,7.70070187 L1.14392461,7.70070187 C1.33425721,8.14300357 1.76250554,8.36883913 2.41902439,8.36883913 C3.47517738,8.36883913 3.81758315,7.92653743 3.81758315,6.98539439 L3.81758315,6.56183155 C3.38933481,7.00413324 2.95176275,7.18312166 2.33350333,7.18312166 C0.982206208,7.18312166 0.0401884701,6.19513146 0.0401884701,4.92444296 C0.0401884701,3.65407754 0.991529933,2.65671791 2.27595344,2.65671791 C2.9041796,2.65671791 3.38933481,2.8541221 3.81758315,3.28705437 L3.81758315,2.76947415 L5.30198448,2.76947415 L5.30198448,3.41887255 L4.63614191,3.41887255 L4.63614191,6.41127451 L4.63614191,6.57152406 L4.63614191,6.57152406 Z" id="Fill-34" fill="#FFFFFF" mask="url(#mask-2)"></path>
                    <path d="M10.6020399,6.43033645 L10.6020399,7.07973485 L8.44215078,7.07973485 L8.44215078,6.43033645 L9.11731707,6.43033645 L9.11731707,4.49183378 C9.11731707,3.83274287 9.07005543,3.39044118 8.34666297,3.39044118 C7.88047672,3.39044118 7.44290466,3.63533868 6.9767184,4.12448752 L6.9767184,6.43033645 L7.65220621,6.43033645 L7.65220621,7.07973485 L5.49231707,7.07973485 L5.49231707,6.43033645 L6.15848115,6.43033645 L6.15848115,0.962789661 L5.49231707,0.962789661 L5.49231707,0.304021836 L6.9767184,0.304021836 L6.9767184,3.38139483 C7.48084257,2.89192291 7.98528825,2.65671791 8.56560976,2.65671791 C9.07937916,2.65671791 9.46936807,2.84475267 9.70760532,3.16460561 C9.9262306,3.45635027 9.93587583,3.76715686 9.93587583,4.11544118 L9.93587583,4.20008913 L9.93587583,6.43033645 L10.6020399,6.43033645" id="Fill-36" fill="#FFFFFF" mask="url(#mask-2)"></path>
                </g>
            </g>
        </g>
    </g>
</svg>