<?xml version="1.0" encoding="UTF-8"?>
<svg width="117px" height="40px" viewBox="0 0 117 40" version="1.1" xmlns="http://www.w3.org/2000/svg" xmlns:xlink="http://www.w3.org/1999/xlink">
    <!-- Generator: sketchtool 48.2 (47327) - http://www.bohemiancoding.com/sketch -->
    <title>4361B26C-7D91-459D-ADEB-7D718A8F9575</title>
    <desc>Created with sketchtool.</desc>
    <defs>
        <polygon id="path-1" points="2.40611892 0.158628559 0.098435271 0.158628559 0.098435271 2.43822745 2.40611892 2.43822745"></polygon>
    </defs>
    <g id="home" stroke="none" stroke-width="1" fill="none" fill-rule="evenodd" transform="translate(-535.000000, -2439.000000)">
        <g id="Group-5" transform="translate(0.000000, 2113.000000)">
            <g id="DLA" transform="translate(535.000000, 326.000000)">
                <path d="M6.52246974,4.51676621 L6.07977587,4.51676621 L4.11716642,4.51676621 L4.11716642,12.1483133 L6.52246974,12.1483133 L6.52246974,10.7722246 C6.36525666,10.8030535 6.17512532,10.8030535 5.92199524,10.7722246 L5.92199524,5.89285494 C6.17512532,5.89285494 6.36525666,5.92480487 6.52246974,5.92480487 L6.52246974,4.51676621 L6.52246974,4.51676621 Z M12.2553552,4.32955087 L12.2553552,5.70563961 C11.6849612,5.70563961 11.5896118,6.26896718 11.5896118,6.73756603 L11.5896118,9.86473467 C11.5896118,10.3025047 11.6849612,10.9600004 12.2553552,10.9600004 L12.2553552,12.3360892 C10.4187433,12.3360892 9.78535049,11.4291598 9.78535049,9.73973763 L9.78535049,6.61256897 C9.78535049,5.17370144 10.6724409,4.36094027 12.2553552,4.32955087 L12.2553552,4.32955087 L12.2553552,4.32955087 Z M6.55595555,12.1483133 C7.12521445,12.1483133 7.69504093,12.1169239 8.17008545,11.804151 C8.70869636,11.4913781 8.93004331,10.928611 8.93004331,10.1466787 L8.93004331,6.76895543 C8.93004331,6.01841253 8.83526138,5.2986985 8.13830237,4.89175739 C7.66269023,4.6109344 7.0934313,4.54815561 6.52246974,4.51676621 L6.52246974,5.92480487 C6.96629871,6.01841253 7.12521445,6.20562786 7.12521445,6.8625631 L7.12521445,9.36474644 C7.15699761,10.1780681 7.15699761,10.6472275 6.52246974,10.7722246 L6.52246974,12.1483133 L6.55595555,12.1483133 L6.55595555,12.1483133 Z M18.5245814,12.1483133 L20.3623285,12.1483133 L20.3623285,4.51676621 L18.6840647,4.51676621 L18.8418453,8.80197941 L18.8094946,8.80197941 L17.4167116,4.51676621 L15.547749,4.51676621 L15.547749,12.1483133 L17.258931,12.1483133 L17.1005828,7.89448948 L17.1312309,7.89448948 L18.5245814,12.1483133 L18.5245814,12.1483133 Z M12.2553552,12.3360892 L12.2553552,10.9600004 C12.8563973,10.9600004 12.888748,10.3025047 12.888748,9.86473467 L12.888748,6.73756603 C12.888748,6.26896718 12.8563973,5.70563961 12.2553552,5.70563961 L12.2553552,4.32955087 C13.8382696,4.32955087 14.6930093,5.14287257 14.6930093,6.61256897 L14.6930093,9.73973763 C14.6930093,11.4599887 14.0919672,12.3360892 12.2553552,12.3360892 L12.2553552,12.3360892 L12.2553552,12.3360892 Z M23.6552897,4.51676621 L23.6552897,5.89285494 L23.1490296,9.33335704 L23.6552897,9.33335704 L23.6552897,10.6780564 L22.9265475,10.6780564 L22.7364162,12.1483133 L20.8998042,12.1483133 L22.5786356,4.51676621 L23.6552897,4.51676621 L23.6552897,4.51676621 Z M26.3159933,11.5849857 L24.7631595,4.51676621 L23.6552897,4.51676621 L23.6552897,5.89285494 L23.6865053,5.89285494 L24.1939006,9.33335704 L23.6552897,9.33335704 L23.6552897,10.6780564 L24.3522488,10.6780564 L24.6048113,12.1483133 L26.3159933,12.1483133 L26.3159933,11.5849857 L26.3159933,11.5849857 Z M26.1888608,6.0492414 L26.3159933,6.0492414 L26.3159933,4.51676621 L26.1888608,4.51676621 L26.1888608,6.0492414 L26.1888608,6.0492414 Z M35.8793159,12.1483133 L35.8793159,10.6472275 L33.4087436,10.6472275 L33.4087436,8.98919474 L35.6891846,8.98919474 L35.6891846,7.45728006 L33.4087436,7.45728006 L33.4087436,6.0492414 L35.7533184,6.0492414 L35.7533184,4.51676621 L31.6039148,4.51676621 L31.6039148,12.1483133 L35.8793159,12.1483133 L35.8793159,12.1483133 Z M26.3159933,6.0492414 L27.6139945,6.0492414 L27.6139945,12.1483133 L29.4188233,12.1483133 L29.4188233,6.0492414 L30.9069557,6.0492414 L30.9069557,4.51676621 L26.3159933,4.51676621 L26.3159933,6.0492414 L26.3159933,6.0492414 Z M26.3159933,12.1483133 L26.3159933,11.5849857 L26.4419909,12.1483133 L26.3159933,12.1483133 L26.3159933,12.1483133 Z" id="Fill-3" fill="#FFFFFF"></path>
                <path d="M35.6568338,35.2599899 L35.6568338,32.476423 L31.1288702,32.476423 L31.1288702,29.4434225 L35.2771387,29.4434225 L35.2771387,26.6592951 L31.1288702,26.6592951 L31.1288702,24.0954541 L35.4354869,24.0954541 L35.4354869,21.3113267 L27.8041258,21.3113267 L27.8041258,35.2599899 L35.6568338,35.2599899 L35.6568338,35.2599899 Z M21.7238959,35.2599899 L21.7238959,29.3492544 L25.872732,29.3492544 L25.872732,26.565127 L21.7238959,26.565127 L21.7238959,24.0954541 L26.2200764,24.0954541 L26.2200764,21.3113267 L18.4297995,21.3113267 L18.4297995,35.2599899 L21.7238959,35.2599899 L21.7238959,35.2599899 Z M13.23666,35.2599899 L16.5614044,35.2599899 L16.5614044,21.3113267 L13.23666,21.3113267 L13.23666,35.2599899 L13.23666,35.2599899 Z M11.9698744,35.2599899 L11.9698744,32.476423 L7.88460472,32.476423 L7.88460472,21.3113267 L4.56042784,21.3113267 L4.56042784,35.2599899 L11.9698744,35.2599899 L11.9698744,35.2599899 Z" id="Fill-5" fill="#FFFFFF"></path>
                <path d="M0,0.576107701 L19.7600378,0.576107701 L19.7600378,2.5469134 L1.96260945,2.5469134 L1.96260945,37.7002352 L19.7600378,37.7002352 L19.7600378,39.6385304 L0,39.6385304 L0,0.576107701 L0,0.576107701 Z M19.7600378,0.576107701 L39.5200756,0.576107701 L39.5200756,39.6385304 L19.7600378,39.6385304 L19.7600378,37.7002352 L37.5574661,37.7002352 L37.5574661,2.5469134 L19.7600378,2.5469134 L19.7600378,0.576107701 L19.7600378,0.576107701 Z" id="Fill-7" fill="#FFFFFF"></path>
                <path d="M17.526315,17.622122 C17.6611582,17.4426374 17.7358491,17.2448333 17.7358491,17.037037 C17.7358491,16.5929694 17.5791439,15.7609014 17.1126021,15.3158734 C17.9898003,15.2893375 18.8725931,15.2759304 19.7602648,15.2759304 C26.599885,15.2759304 33.155727,16.0886916 39.1088244,17.5589484 L39.1088244,20.1547395 C33.2510765,18.5280961 26.6952344,17.5897773 19.7602648,17.5897773 C19.0116414,17.5897773 18.2668114,17.6006407 17.526315,17.622122 Z M12.5104916,17.93411 C8.31460033,18.3366017 4.30908409,19.0826891 0.601836629,20.1233501 L0.601836629,17.4961697 C5.31803048,16.3439594 10.4207295,15.6133629 15.7464386,15.3679895 C15.5320875,15.4692275 15.3222889,15.5555556 15.1493711,15.5555556 C13.7208987,15.5555556 12.5628931,16.2188374 12.5628931,17.037037 C12.5628931,17.2320362 12.4454579,17.6844103 12.5104916,17.93411 Z" id="Combined-Shape" fill="#FFFFFF"></path>
                <path d="M14.5668983,17.1521195 C14.5668983,17.1521195 14.5351151,17.1521195 14.5351151,17.1835089 C14.4721164,17.2143378 14.4397657,17.2771165 14.40855,17.3398953 C14.40855,17.4026741 14.40855,17.4648924 14.4397657,17.4962818 L14.4397657,17.5276712 C14.503332,17.6212788 14.5986814,17.6834971 14.6934633,17.6834971 C14.8205959,17.7148865 14.9148103,17.7148865 15.0419428,17.6526682 C15.0731584,17.6212788 15.104374,17.6212788 15.1372923,17.5898895 C15.3586392,17.4329424 15.517555,17.2457271 15.5805537,17.027683 C15.6123368,16.8079572 15.6123368,16.5893524 15.4852042,16.3701872 C15.4852042,16.3382373 15.4528535,16.3074084 15.4222055,16.2765795 C15.2644249,16.0265854 14.9789441,15.838249 14.6622477,15.7760307 C14.3455514,15.7138124 14.0282874,15.7446413 13.7110235,15.9010278 C13.6485923,15.9329777 13.5855936,15.9638066 13.5214597,15.9946355 C13.1417646,16.2446296 12.9204176,16.5893524 12.7944202,16.9649041 C12.6985032,17.3398953 12.7302863,17.7468364 12.9204176,18.1218276 C12.9516333,18.1526565 12.9834163,18.2154353 13.0464151,18.2782141 C13.3318959,18.7159841 13.7751574,18.9973676 14.3132006,19.0915358 C14.8205959,19.2165328 15.3898548,19.1537541 15.8966825,18.9031994 C15.992032,18.8723705 16.0550307,18.8101522 16.1498126,18.7473735 C16.6884235,18.4032111 17.036903,17.9021019 17.1634681,17.3707242 C17.3218162,16.8707359 17.2588175,16.2765795 17.0051198,15.7760307 C16.9415536,15.6818625 16.910338,15.6202048 16.8473392,15.5260366 C16.4352934,14.9318801 15.8019006,14.524939 15.0731584,14.3685526 C14.3455514,14.2121661 13.5532429,14.2743844 12.8562838,14.6504967 C12.6661525,14.7441043 12.4760211,14.8382725 12.2864573,14.4621603 C12.0968936,14.0871691 12.2864573,13.9930009 12.4760211,13.8993933 C13.3318959,13.4302339 14.3455514,13.3366262 15.2644249,13.5552309 C16.1815957,13.7430067 17.036903,14.2743844 17.5749463,15.0568773 C17.637945,15.1504849 17.7015113,15.2760425 17.7650777,15.3696501 C18.1459079,16.0888036 18.2094742,16.8707359 18.0182077,17.6212788 C17.7962932,18.3404324 17.3218162,18.9973676 16.6254247,19.4659664 C16.5306428,19.5287453 16.4035102,19.591524 16.2780803,19.6543028 C15.6123368,20.0287335 14.8205959,20.0920728 14.1236369,19.9351259 C13.3954622,19.7792999 12.7302863,19.3723587 12.3182405,18.7473735 C12.2552417,18.6845947 12.2234586,18.5904264 12.1598922,18.4968188 C11.8749791,17.9340518 11.8119803,17.3398953 11.9697609,16.7451784 C12.1286767,16.1824113 12.5089394,15.6818625 13.0464151,15.3068713 C13.1417646,15.2446531 13.2365464,15.1818743 13.3318959,15.1504849 C13.8063729,14.9004908 14.3455514,14.8382725 14.8512439,14.9621485 C15.3898548,15.0568773 15.8331162,15.3696501 16.1498126,15.8068596 C16.1815957,15.870199 16.2139464,15.9329777 16.2445945,15.9638066 C16.4676441,16.3701872 16.4982921,16.8393466 16.4035102,17.2457271 C16.2780803,17.6526682 16.0232475,18.0276594 15.6123368,18.2782141 C15.548203,18.3404324 15.4852042,18.3718218 15.4222055,18.4032111 C15.1372923,18.5595976 14.8205959,18.5904264 14.503332,18.5282082 C14.1872032,18.4654294 13.9335055,18.2782141 13.7439417,17.9962701 C13.7110235,17.9654412 13.6803754,17.9340518 13.6803754,17.9021019 C13.5214597,17.6526682 13.5214597,17.3707242 13.5855936,17.1207301 C13.6485923,16.8707359 13.8063729,16.6207419 14.059503,16.4643553 C14.0918537,16.432966 14.1236369,16.432966 14.1872032,16.4015766 C14.3773345,16.3074084 14.5668983,16.2138007 14.7570296,16.5893524 C14.9465934,16.9649041 14.7570296,17.0585118 14.5668983,17.1521195" id="Fill-13" fill="#FFFFFF"></path>
                <g id="Fill-15-Clipped" transform="translate(40.161960, 0.401784)">
                    <mask id="mask-2" fill="white">
                        <use xlink:href="#path-1"></use>
                    </mask>
                    <g id="path-1"></g>
                    <path d="M1.4713538,0.867076037 C1.41403062,0.836807689 1.32322162,0.821112993 1.19722413,0.821112993 L1.00311991,0.821112993 L1.00311991,1.2684119 L1.20857526,1.2684119 C1.30449226,1.2684119 1.37600435,1.2594435 1.42424663,1.24038564 C1.51221785,1.20675415 1.55705479,1.1428543 1.55705479,1.04756507 C1.55705479,0.957881074 1.52810942,0.897904904 1.4713538,0.867076037 L1.4713538,0.867076037 L1.4713538,0.867076037 Z M1.23127751,0.66696863 C1.38849059,0.66696863 1.50313694,0.681542279 1.57805437,0.71237115 C1.70972742,0.765621022 1.77499638,0.870439185 1.77499638,1.02738617 C1.77499638,1.1383701 1.73356478,1.22076727 1.65013401,1.27345661 C1.60643218,1.30148287 1.54513611,1.32166176 1.46624579,1.33343279 C1.56556813,1.34912749 1.63821533,1.39004581 1.68305227,1.45562722 C1.72902432,1.5223297 1.75229413,1.58679006 1.75229413,1.64956885 L1.75229413,1.74093442 C1.75229413,1.76952119 1.7539968,1.80091059 1.75513191,1.83342104 C1.75683459,1.86705253 1.76137503,1.88835248 1.7670506,1.89900245 L1.77499638,1.91413663 L1.5672708,1.91413663 C1.56670325,1.90965243 1.56556813,1.90628928 1.56443302,1.90180508 C1.56386547,1.89788141 1.5621628,1.89227616 1.56102768,1.88779196 L1.55705479,1.84743416 L1.55705479,1.74822124 C1.55705479,1.60416633 1.51619074,1.5088771 1.43559775,1.46291405 C1.38735547,1.43656938 1.30392471,1.42255625 1.18246768,1.42255625 L1.00311991,1.42255625 L1.00311991,1.91413663 L0.785745867,1.91413663 L0.785745867,0.66696863 L1.23127751,0.66696863 L1.23127751,0.66696863 Z M0.545669582,0.602508261 C0.351565351,0.794207793 0.253945679,1.02514407 0.253945679,1.29643814 C0.253945679,1.56885327 0.351565351,1.80259216 0.54453447,1.99485222 C0.738071146,2.1876728 0.974174535,2.28352256 1.25170954,2.28352256 C1.52924454,2.28352256 1.76534793,2.1876728 1.95831705,1.99485222 C2.15298884,1.80259216 2.25060851,1.56885327 2.25060851,1.29643814 C2.25060851,1.02514407 2.15298884,0.794207793 1.95831705,0.602508261 C1.76421282,0.409687681 1.52697431,0.31327739 1.25170954,0.31327739 C0.976444761,0.31327739 0.740908924,0.409687681 0.545669582,0.602508261 L0.545669582,0.602508261 L0.545669582,0.602508261 Z M2.0678554,2.10303353 C1.84253558,2.32668299 1.56954103,2.43822745 1.25000686,2.43822745 C0.930472708,2.43822745 0.656910604,2.32668299 0.433293449,2.10303353 C0.209676293,1.88050513 0.098435271,1.61145316 0.098435271,1.29531709 C0.098435271,0.981983644 0.210811406,0.7134922 0.436698786,0.490963798 C0.660315941,0.269556445 0.931607817,0.158572507 1.25000686,0.158572507 C1.56954103,0.158572507 1.84253558,0.269556445 2.0678554,0.490963798 C2.29317523,0.71237115 2.40611892,0.980302074 2.40611892,1.29531709 C2.40611892,1.61089264 2.29317523,1.87938408 2.0678554,2.10303353 L2.0678554,2.10303353 L2.0678554,2.10303353 Z" id="Fill-15" fill="#221F20" mask="url(#mask-2)"></path>
                </g>
                <path d="M96.2777988,16.5729851 L96.2783664,16.5729851 C96.9929194,16.459759 97.7801198,15.5847796 97.6473123,14.761929 C97.6143939,14.5556559 97.5190444,14.391422 97.3720475,14.2866039 C97.22732,14.1817857 97.039459,14.1442305 96.8305986,14.1773015 C96.1387476,14.2866039 95.3367908,15.2131516 95.465058,16.0107786 C95.53203,16.425567 95.8430511,16.6408086 96.2777988,16.5729851 L96.2777988,16.5729851 L96.2777988,16.5729851 Z M109.625018,18.2652099 C109.619911,18.2713757 109.466671,18.447941 109.466671,18.447941 C109.366213,18.5561224 109.291296,18.6362774 109.291296,18.7186746 C109.291296,18.7225983 109.292431,18.7265219 109.292431,18.7298851 C109.302079,18.8487164 109.554642,18.9468082 109.720935,18.998937 C109.556912,19.1614893 108.937708,19.782551 108.937708,19.782551 L108.053455,20.672104 C106.81221,21.919272 104.973328,23.5576864 104.664577,23.6972571 C104.651524,23.671473 104.63393,23.6204652 104.625983,23.5274181 C104.624848,23.5066787 104.623713,23.4853787 104.623713,23.4635182 C104.623713,22.8979486 105.179351,21.7348593 106.094819,20.3946441 C107.643113,18.0723893 109.958175,15.8241238 110.622215,15.7753581 C110.747078,15.7658292 110.796455,15.8050659 110.807238,15.9188525 L110.807238,15.9272604 C110.807238,16.2030387 109.804934,18.0662236 109.625018,18.2652099 L109.625018,18.2652099 L109.625018,18.2652099 Z M81.3499345,18.490541 C81.9748143,18.4445779 81.9946784,18.6861641 82.0054625,18.8162059 L82.0054625,18.8178875 C82.0054625,19.0611553 80.183039,20.469194 78.7403112,20.9663796 C79.6137803,19.6082277 80.7330011,18.5359435 81.3499345,18.490541 L81.3499345,18.490541 L81.3499345,18.490541 Z M116.806308,17.2713992 C116.727418,17.16546 116.616176,17.1340706 116.544664,17.1391153 L116.50607,17.1419179 L116.481666,17.1738679 C116.237049,17.4995328 115.158692,18.7786507 114.057633,19.964161 C112.557582,21.5269045 111.963918,21.8766721 111.730085,21.8940484 C111.55471,21.9069404 111.439496,21.839117 111.40828,21.4630047 C111.379335,21.1188424 111.53144,20.5953121 111.679005,20.0891581 C111.823732,19.5908514 111.959945,19.1200104 111.932702,18.8049954 C111.892406,18.3078098 111.558115,18.0449236 111.014964,18.0847209 C110.952533,18.0897656 110.883291,18.110505 110.802131,18.143576 C111.160826,17.423862 111.58025,16.378483 111.58025,15.9356682 C111.58025,15.9188525 111.579683,15.9031578 111.579115,15.8880236 C111.512711,15.0909572 110.926992,14.6352504 110.049551,14.7002713 C109.087543,14.7703369 107.903621,15.5640402 106.716861,16.9350842 C106.102765,17.6430272 105.545424,18.43617 105.073785,19.2399628 C104.567525,19.8391639 103.959105,20.5179596 103.315496,21.1833027 C101.490803,23.0162193 100.088939,24.0173169 99.2631442,24.0778536 C98.7018312,24.1193324 98.3210012,23.7353728 98.2659483,23.0750744 C98.1314375,21.4316153 99.2324967,19.5224673 100.216639,18.3857227 C100.947084,17.5421327 101.704771,16.9961814 102.195708,16.9608684 C102.259274,16.9558236 102.305813,16.9631104 102.326813,16.9821683 C102.358596,17.0113156 102.360866,17.0959549 102.362001,17.1856389 L102.367678,17.3212859 C102.375623,17.4227409 102.356326,17.5449353 102.337029,17.6632061 C102.318299,17.7854005 102.300138,17.8997476 102.308651,18.0012027 C102.329651,18.2539994 102.461892,18.2640889 102.502755,18.2612862 C102.682103,18.2483941 102.952828,18.1306839 103.153743,17.8986266 C103.287686,17.7433612 103.441494,17.4759908 103.408008,17.0819418 C103.367144,16.5696219 102.307516,15.4300747 101.645178,15.4788404 C100.953327,15.5298481 99.8028905,16.3549409 98.7824244,17.5337249 C97.5956641,18.9042084 96.8357066,20.4293967 96.6302515,21.7920328 C96.2505558,22.1003216 95.7255666,22.4971733 95.2255494,22.8475013 C94.2578659,23.4836971 93.568285,23.8205726 93.1800769,23.8491594 C93.0012966,23.862612 92.9093524,23.693894 92.9019743,23.6036495 C92.8656506,23.1529874 93.6727159,22.0319376 93.9763581,21.6104227 C94.2692176,21.2202974 94.6954522,20.7225513 95.0376883,20.3212154 C95.3021697,20.0118056 95.51103,19.7679773 95.5899206,19.6547513 C95.7579175,19.3716861 95.8379424,18.5964801 95.814673,18.3139756 C95.7908352,18.020821 95.3856006,17.7203796 94.8810431,17.7573743 C94.5654817,17.7803559 94.2135965,17.9922342 93.9139272,18.3369571 C93.6505809,18.6418827 93.4916654,18.975395 93.5081243,19.1867129 C93.522313,19.3559915 93.4547741,19.526391 93.289615,19.73883 C93.2873448,19.7433141 93.2714534,19.7657352 93.2714534,19.7657352 C93.006972,20.1586632 92.5739269,20.8374589 92.2095557,21.571186 C91.2991953,22.5543467 90.6737487,23.1485032 90.2923511,23.4848181 C89.2236427,24.423137 88.2968234,24.8833279 87.8887504,24.9124752 C87.778644,24.9208831 87.630512,24.9012647 87.6095127,24.6411811 C87.5890803,24.4074422 88.1288265,23.7135124 88.6498429,23.0408824 C89.4251249,22.0397849 90.3059722,20.9052824 90.252622,20.2612393 C90.1788394,19.3548704 89.4194495,18.8868321 88.1719608,18.9787581 C87.7525368,19.0090265 87.1202789,19.0555501 87.1117657,18.952974 C87.1333325,18.8918768 87.4528667,18.4838147 87.733807,18.1239576 L88.0204235,17.7562533 C88.5437101,17.1234206 88.9886738,16.3818461 88.9705123,16.1705282 C88.9262428,15.6296216 88.198068,15.6828715 87.9596945,15.7002478 C87.4017868,15.7417266 86.623667,16.2787095 85.8796009,17.1385547 C85.3171528,17.7876427 84.7677582,18.6536537 84.8063522,19.1233736 C84.837568,19.5034095 85.0719687,19.7808693 85.4539338,19.9277269 C84.7955688,20.7696353 83.811994,21.8906853 82.7461234,22.906917 C80.9832931,24.5727971 79.4474861,25.5324158 78.4185068,25.6080867 C77.8571938,25.649005 77.4746611,25.2644849 77.4207426,24.6058681 C77.4156347,24.5430893 77.4133645,24.4786289 77.4133645,24.4130475 C77.4133645,23.8642936 77.5921448,23.1922241 77.9309764,22.4534523 C79.446351,21.9304825 83.2200327,20.0230161 83.2200327,18.626188 C83.2200327,18.6054485 83.2188976,18.5841486 83.217195,18.5639697 C83.1757633,18.0662236 82.7154751,17.8717214 82.3465636,17.7158955 L82.0968391,17.6026694 L81.7897909,17.401441 C81.5111208,17.2035756 81.196127,16.9799262 80.7994056,17.0090735 C80.1092572,17.0595207 78.958253,17.885174 77.9377869,19.0628369 C76.4303573,20.8021458 75.6096708,22.7897673 75.7396413,24.3788555 C75.859396,25.8216467 76.8594296,26.650663 78.3515355,26.5413607 C79.7216158,26.4404662 81.4515276,25.3608952 83.4935949,23.3345975 C85.030537,21.8127723 85.9397623,20.6177331 86.3813207,20.0375898 C86.3869962,20.0370293 86.3921041,20.0375898 86.3977796,20.0370293 C86.810393,20.0073214 87.1946291,19.9451032 87.5334599,19.8907322 L88.2661751,19.7926404 C88.4971705,19.7747036 88.6390595,19.8032904 88.644735,19.8677507 C88.6663018,20.1429684 88.1691231,20.8200826 87.6412954,21.536994 C86.85523,22.605915 85.9647344,23.8172095 86.0311389,24.6226838 C86.1015155,25.4791659 86.8580677,25.8894701 87.534595,25.840144 C88.767895,25.7498995 90.1005164,24.6417416 90.7844218,23.9892906 C91.0948753,23.7011808 91.374113,23.4242815 91.6238374,23.1647584 C91.5778653,23.3934526 91.5568661,23.6137389 91.5721899,23.8110437 C91.6306487,24.5234709 92.0676667,24.8861305 92.801517,24.8323201 C93.6744186,24.7689808 94.6097511,24.1479192 95.2300898,23.7376149 L95.2987644,23.6916519 C95.6143258,23.4736077 96.1336396,23.0380798 96.5763331,22.6457124 C96.5786033,22.7140964 96.5808742,22.7824804 96.5854146,22.8497434 C96.704601,24.2925346 97.7046353,25.1204299 99.1967405,25.010567 C100.301205,24.9298515 101.850066,23.8732619 103.80246,21.8699459 C103.838215,21.8335117 103.873404,21.7976381 103.908592,21.761204 C103.66057,22.5162311 103.537978,23.2023136 103.582248,23.7392965 C103.626517,24.2858083 103.973294,24.8496964 104.415988,24.8166254 C104.921113,24.7796308 106.320706,23.4332499 107.758894,21.9848534 L107.798623,21.9461772 C108.606823,21.1580791 109.940012,19.8559797 110.125603,19.7343458 C110.138657,19.7421931 110.157387,19.7590089 110.157387,19.7915193 C110.157387,19.795443 110.156819,19.8004877 110.156251,19.806093 C110.117658,19.9243637 110.013795,20.6351093 110.013795,21.1244476 C110.013795,21.1961948 110.016633,21.2634579 110.021173,21.3228735 C110.11255,22.4343944 110.548432,23.0431245 111.218149,22.9943588 C112.118861,22.9276564 113.421402,21.6367674 114.198387,20.8654851 L114.375464,20.6900408 C115.112152,19.9647216 116.655905,18.0583762 116.812551,17.8251979 C116.932305,17.5292407 116.874414,17.3616437 116.806308,17.2713992 L116.806308,17.2713992 L116.806308,17.2713992 Z M74.7606069,25.4304002 C74.6584469,25.4376871 74.5381247,25.5324158 74.4126946,25.6321893 C74.3474259,25.6826364 74.2503739,25.7594284 74.2163203,25.7667152 C74.2168878,25.7655941 74.2168878,25.7644731 74.2168878,25.7616705 C74.2168878,25.7448547 74.2117799,25.7061785 74.2106448,25.6972101 C74.2117799,25.6910444 74.2866976,25.324461 74.2866976,25.324461 C74.4694508,24.4590105 74.8786589,22.5274416 74.8786589,21.448431 C74.8786589,21.3542629 74.8758212,21.2673815 74.8690099,21.187787 C74.7878499,20.2007025 74.3741014,19.7887167 73.5273072,19.850935 C72.0085267,19.9619189 70.114024,21.8951694 69.159962,23.020143 C69.6338714,22.053798 70.2740749,20.5969937 70.2740749,19.9697662 C70.2740749,19.9467847 70.2735074,19.9254848 70.2712371,19.9053059 C70.2065357,19.1300999 69.4023085,18.7225983 68.6610801,18.7769692 C66.8624944,18.909253 64.2471952,21.3094209 62.3390712,23.0621824 C62.3390712,23.0621824 62.2091008,23.1804531 62.1018327,23.278545 C62.6495245,22.367692 63.5298042,20.8817404 63.5298042,20.726475 L63.5298042,20.7236723 C63.5025615,20.3963257 62.6279574,20.3268207 62.2681267,20.3537259 C62.1852635,20.3593311 62.0910492,20.4293967 61.9525654,20.5891463 C61.0751235,21.6025754 58.5761734,26.2751113 58.6096592,26.6758867 C58.638037,27.0099596 59.65226,27.4679084 59.7913113,27.4572584 C59.8622558,27.4522137 59.9212817,27.3939191 60.7760213,26.4208479 C62.5326079,24.4236975 66.6451204,19.7449958 68.4141931,19.6155145 C68.6820797,19.5958961 68.7325922,19.6654012 68.750754,19.8834454 C68.7819695,20.2573156 67.8602582,22.1176979 67.1190298,23.6120573 C66.6388772,24.5800839 66.1853998,25.4937396 66.0242138,25.9337516 C65.8993514,26.2980929 66.4129898,26.6988682 66.8187925,26.8675862 C67.1542183,27.0065964 67.3954297,26.9909017 67.4811307,26.8244258 C67.9221219,25.9146938 68.7836723,24.6983547 69.9040282,23.3951341 C71.1810298,21.9231957 72.3235205,20.9478823 72.8127539,20.9131297 C72.9569132,20.9019193 73.0136689,20.9232192 73.0352359,21.188908 C73.0936943,21.8979721 72.8297806,22.8508644 72.5755154,23.7701254 C72.3206827,24.6921889 72.0794713,25.5632447 72.1333891,26.222422 C72.207739,27.1136567 72.6294333,27.2167933 72.8734824,27.1988564 C73.3502296,27.1641039 74.4870447,26.5357554 74.8673072,26.0963039 C74.9762785,25.9707463 75.0256559,25.8631255 75.0177102,25.7667152 C74.999548,25.5492316 74.9002257,25.4203108 74.7606069,25.4304002 L74.7606069,25.4304002 L74.7606069,25.4304002 Z M52.0844652,18.1833733 C53.6673795,16.5348694 61.0200705,9.42461052 62.8328451,8.38988148 C61.9576734,9.86181993 58.7163597,15.5774928 57.6487865,17.7231823 C55.9086591,17.8173504 53.9477523,17.9799027 52.0844652,18.1833733 L52.0844652,18.1833733 L52.0844652,18.1833733 Z M58.153344,23.4394156 L58.1272364,23.4422183 L58.1068044,23.4595945 C57.3996293,24.0481458 56.7253725,24.8715569 56.1634919,25.7997862 C56.431946,25.0817537 56.6918867,24.3592371 56.9404764,23.6529756 C57.5557073,21.9046984 58.1930729,20.0981264 59.026813,18.3969333 C59.1085411,18.391328 59.4280753,18.3683465 59.4280753,18.3683465 C59.8662287,18.3341544 60.3185711,18.2994019 60.7669404,18.3106124 L60.9406127,18.3139756 L60.4877028,17.6867481 C60.4877028,17.6867481 59.5251274,17.6923534 59.2981049,17.6929139 C60.1500068,16.0382443 61.0790964,14.4059957 61.9593761,12.8875336 L62.8056024,11.524337 C64.06728,9.50476556 65.2046626,7.67409111 65.2739045,7.46557583 L65.2756072,7.46109163 C65.3544975,7.16008973 65.3925237,6.90561141 65.3925237,6.65505676 C65.3925237,6.55752542 65.3868482,6.46111513 65.375497,6.36246274 C65.365281,6.2738998 65.264256,5.50261748 64.8124813,5.55306473 C63.8493383,5.66012499 59.6976645,9.11856385 56.2401119,12.4009979 C53.6645418,14.8953339 51.3619661,17.222073 50.3534187,18.347607 C49.5577048,18.458591 48.9458792,18.5964801 48.2415419,18.7567903 L47.6427702,18.8918768 C47.5462856,18.9120557 38.0953392,21.0392479 38.0953392,22.6714965 C38.0953392,22.6877517 38.0964743,22.7034464 38.0981769,22.7191411 C38.1146361,22.8671197 38.2031749,23.0078115 38.3518746,23.1249612 C38.5993291,23.3194633 39.0000238,23.436613 39.3059366,23.402421 C39.8212777,23.3452475 40.8406087,22.7673462 41.7407528,22.2572685 C42.1465556,22.0268928 42.4973053,21.8279064 42.7356789,21.7158015 C44.8685552,20.7595459 47.9049811,19.7393905 49.251792,19.5151805 C48.4101061,20.4731176 47.5701229,21.5162546 46.7556797,22.5324863 C46.041694,23.4231604 45.3033033,24.345224 44.5791016,25.1871324 C44.5791016,25.187693 43.7266321,26.2072879 43.7266321,26.2072879 C43.1692919,26.8838414 42.5920872,27.5839371 41.9910451,28.2072408 L41.7606174,28.425285 C40.9422013,29.1881595 40.7883935,29.3753748 40.7883935,29.4790719 C40.7883935,29.4829956 40.7889611,29.4863587 40.7895286,29.4902824 C40.8179064,29.7436397 41.4677583,29.6909504 41.6647003,29.6690899 C42.2464455,29.6046295 42.6976527,29.1562096 43.0603211,28.7952315 L43.0972122,28.7599184 C43.8123331,28.0738359 44.4514014,27.2431379 45.0689026,26.4404662 L45.7806181,25.5296132 C47.6126896,23.2634108 49.3590601,21.1726528 50.9743252,19.3139521 C52.7048041,18.9619424 54.9948935,18.6682273 57.2855505,18.5017514 C56.2469226,20.3189733 52.3222713,28.7778552 52.3222713,31.6197167 C52.3222713,31.717248 52.3268117,31.8074925 52.3358926,31.8921318 C52.4045669,32.4946961 52.7337496,33.6135039 53.4874642,33.5294252 C53.6395692,33.5131699 53.747405,33.4212439 53.808701,33.2564495 C54.1747748,32.1129786 54.8950037,30.4112249 55.8377145,28.4600376 C56.7236699,26.5979737 57.6936234,24.7919624 58.3661776,23.7460228 L58.3826367,23.7196781 L58.3792313,23.6899703 C58.3724207,23.6255099 58.259477,23.4282052 58.153344,23.4394156 L58.153344,23.4394156 L58.153344,23.4394156 Z" id="Fill-18" fill="#FFFFFF"></path>
            </g>
        </g>
    </g>
</svg>