<?xml version="1.0" encoding="UTF-8"?>
<svg width="218px" height="127px" viewBox="0 0 218 127" version="1.1" xmlns="http://www.w3.org/2000/svg" xmlns:xlink="http://www.w3.org/1999/xlink">
    <!-- Generator: sketchtool 48.2 (47327) - http://www.bohemiancoding.com/sketch -->
    <title>8D6DD1B8-D29B-4EFE-AD69-9E8C2ABFDC06</title>
    <desc>Created with sketchtool.</desc>
    <defs></defs>
    <g id="home" stroke="none" stroke-width="1" fill="none" fill-rule="evenodd" transform="translate(-732.000000, -218.000000)">
        <g id="iceberg" transform="translate(732.000000, 218.000000)">
            <path d="M3.00776062,120.709326 C0.79433555,120.650494 -0.432745032,118.9057 0.270508008,116.801723 L13.2460938,77.9816562 L33.0039063,66.4171689 L58.6679688,29.9742583 L93.9746094,0 L145.154297,42.2070313 L170.667968,70.5566406 L191.531249,77.9816589 L217.781254,126.417969 L3.00776062,120.709326 Z" id="Path-3" fill="#FFFFFF"></path>
            <polygon id="Path-5" fill="#F1F8FB" points="133.365234 32.3183594 145.871094 66.2734375 140.087891 91.6953125 145.871094 120.601562 191.164062 123.554688 167.083984 84.7519531 149.429688 42.3027344"></polygon>
            <path d="M72.0600522,124.40625 C70.4013138,124.40625 69.1638296,123.070159 69.2964161,121.417494 L71.4433594,94.65625 L79.5966793,54.5078125 L79.5966797,88.4042969 L87.75,124.40625 L72.0600522,124.40625 Z" id="Path-4" fill="#F1F8FB"></path>
        </g>
    </g>
</svg>