<?xml version="1.0" encoding="UTF-8"?>
<svg width="73px" height="40px" viewBox="0 0 73 40" version="1.1" xmlns="http://www.w3.org/2000/svg" xmlns:xlink="http://www.w3.org/1999/xlink">
    <!-- Generator: sketchtool 48.2 (47327) - http://www.bohemiancoding.com/sketch -->
    <title>3F4A90A4-D139-4793-AE3E-9EC8695FF5AA</title>
    <desc>Created with sketchtool.</desc>
    <defs></defs>
    <g id="menu" stroke="none" stroke-width="1" fill="none" fill-rule="evenodd" transform="translate(-31.000000, -20.000000)">
        <g id="ww-logo" transform="translate(31.000000, 20.000000)">
            <g id="moby" transform="translate(0.000000, 0.549250)">
                <path d="M46.3967952,5.332125 C51.947459,4.628375 70.9998391,5.539 72.0774496,23.915875 C73.22073,43.434 36.1616837,38.924625 36.1616837,38.924625 C36.1616837,38.924625 12.0189541,37.575875 5.24683145,25.799625 C2.31420466,20.700875 5.4338341,16.259 4.9991624,14.779 C4.49069032,13.053375 0.629304559,13.113375 0.0908119877,8.47775 C-0.301330686,5.104 0.369126964,2.76525 6.30380294,0.075875 C4.40875939,4.690875 11.0257761,7.36025 9.2032821,11.415875 C12.1740599,7.980875 18.231945,11.272125 21.4629004,6.3665 C21.9100807,10.08775 21.3065437,13.41775 19.4752937,15.152125 C15.9341265,18.504625 12.2441078,16.509 10.9344638,16.475875 C9.60793332,16.4415 8.46527835,17.797125 8.97625213,19.954 C9.34775572,21.5165 11.4241731,23.3765 14.8777805,21.9815 C19.1012884,20.274 36.1272853,6.63525 46.3967952,5.332125" id="Fill-1" fill="#1076B6"></path>
                <path d="M61.6195611,18.7616875 C61.6195611,20.5791875 60.144179,22.0523125 58.326063,22.0523125 C56.5073216,22.0523125 55.0331903,20.5791875 55.0331903,18.7616875 C55.0331903,16.9448125 56.5073216,15.4710625 58.326063,15.4710625 C60.144179,15.4710625 61.6195611,16.9448125 61.6195611,18.7616875" id="Fill-4" fill="#FEFEFE"></path>
                <path d="M61.0894493,17.456125 C61.0894493,18.48425 60.2551298,19.31675 59.2263025,19.31675 C58.1981007,19.31675 57.365032,18.48425 57.365032,17.456125 C57.365032,16.428 58.1981007,15.5955 59.2263025,15.5955 C60.2551298,15.5955 61.0894493,16.428 61.0894493,17.456125" id="Fill-6" fill="#1076B6"></path>
            </g>
        </g>
    </g>
</svg>