<?xml version="1.0" encoding="UTF-8"?>
<svg width="158px" height="113px" viewBox="0 0 158 113" version="1.1" xmlns="http://www.w3.org/2000/svg" xmlns:xlink="http://www.w3.org/1999/xlink">
    <!-- Generator: sketchtool 48.2 (47327) - http://www.bohemiancoding.com/sketch -->
    <title>55137F0A-AB29-4465-B2DA-ACEE21745F05</title>
    <desc>Created with sketchtool.</desc>
    <defs></defs>
    <g id="home" stroke="none" stroke-width="1" fill="none" fill-rule="evenodd" transform="translate(-841.000000, -1429.000000)">
        <g id="school-of-fish" transform="translate(841.000000, 1429.000000)" fill="#0C67A0">
            <g id="fish" transform="translate(72.533808, 48.646465)">
                <path d="M6.40062571,8.47303568 L0,13.1078765 C0,13.1078765 1.65696818,10.1871001 1.65696818,7.26632311 C1.65696818,4.34554617 1.14640001e-15,1.42476918 1.14640001e-15,1.42476918 L6.2140681,5.92451929 C8.71987894,3.89457931 14.3859579,0 20.9743895,0 C29.8850322,0 37.1085353,7.12384591 37.1085353,7.12384591 C37.1085353,7.12384591 29.8850322,14.2476918 20.9743895,14.2476918 C14.5446665,14.2476918 8.99339443,10.5384856 6.40062571,8.47303568 Z" id="Combined-Shape"></path>
            </g>
            <g id="fish" transform="translate(72.533808, 0.000000)">
                <path d="M6.40062571,8.47303568 L0,13.1078765 C0,13.1078765 1.65696818,10.1871001 1.65696818,7.26632311 C1.65696818,4.34554617 1.14640001e-15,1.42476918 1.14640001e-15,1.42476918 L6.2140681,5.92451929 C8.71987894,3.89457931 14.3859579,0 20.9743895,0 C29.8850322,0 37.1085353,7.12384591 37.1085353,7.12384591 C37.1085353,7.12384591 29.8850322,14.2476918 20.9743895,14.2476918 C14.5446665,14.2476918 8.99339443,10.5384856 6.40062571,8.47303568 Z" id="Combined-Shape"></path>
            </g>
            <g id="fish" transform="translate(72.533808, 98.424242)">
                <path d="M6.40062571,8.47303568 L0,13.1078765 C0,13.1078765 1.65696818,10.1871001 1.65696818,7.26632311 C1.65696818,4.34554617 1.14640001e-15,1.42476918 1.14640001e-15,1.42476918 L6.2140681,5.92451929 C8.71987894,3.89457931 14.3859579,0 20.9743895,0 C29.8850322,0 37.1085353,7.12384591 37.1085353,7.12384591 C37.1085353,7.12384591 29.8850322,14.2476918 20.9743895,14.2476918 C14.5446665,14.2476918 8.99339443,10.5384856 6.40062571,8.47303568 Z" id="Combined-Shape"></path>
            </g>
            <g id="fish" transform="translate(96.711744, 23.757576)">
                <path d="M6.40062571,8.47303568 L0,13.1078765 C0,13.1078765 1.65696818,10.1871001 1.65696818,7.26632311 C1.65696818,4.34554617 1.14640001e-15,1.42476918 1.14640001e-15,1.42476918 L6.2140681,5.92451929 C8.71987894,3.89457931 14.3859579,0 20.9743895,0 C29.8850322,0 37.1085353,7.12384591 37.1085353,7.12384591 C37.1085353,7.12384591 29.8850322,14.2476918 20.9743895,14.2476918 C14.5446665,14.2476918 8.99339443,10.5384856 6.40062571,8.47303568 Z" id="Combined-Shape"></path>
            </g>
            <g id="fish" transform="translate(96.711744, 73.535354)">
                <path d="M6.40062571,8.47303568 L0,13.1078765 C0,13.1078765 1.65696818,10.1871001 1.65696818,7.26632311 C1.65696818,4.34554617 1.14640001e-15,1.42476918 1.14640001e-15,1.42476918 L6.2140681,5.92451929 C8.71987894,3.89457931 14.3859579,0 20.9743895,0 C29.8850322,0 37.1085353,7.12384591 37.1085353,7.12384591 C37.1085353,7.12384591 29.8850322,14.2476918 20.9743895,14.2476918 C14.5446665,14.2476918 8.99339443,10.5384856 6.40062571,8.47303568 Z" id="Combined-Shape"></path>
            </g>
            <g id="fish" transform="translate(120.889680, 48.646465)">
                <path d="M6.40062571,8.47303568 L0,13.1078765 C0,13.1078765 1.65696818,10.1871001 1.65696818,7.26632311 C1.65696818,4.34554617 1.14640001e-15,1.42476918 1.14640001e-15,1.42476918 L6.2140681,5.92451929 C8.71987894,3.89457931 14.3859579,0 20.9743895,0 C29.8850322,0 37.1085353,7.12384591 37.1085353,7.12384591 C37.1085353,7.12384591 29.8850322,14.2476918 20.9743895,14.2476918 C14.5446665,14.2476918 8.99339443,10.5384856 6.40062571,8.47303568 Z" id="Combined-Shape"></path>
            </g>
            <g id="fish" transform="translate(24.177936, 48.646465)">
                <path d="M6.40062571,8.47303568 L0,13.1078765 C0,13.1078765 1.65696818,10.1871001 1.65696818,7.26632311 C1.65696818,4.34554617 1.14640001e-15,1.42476918 1.14640001e-15,1.42476918 L6.2140681,5.92451929 C8.71987894,3.89457931 14.3859579,0 20.9743895,0 C29.8850322,0 37.1085353,7.12384591 37.1085353,7.12384591 C37.1085353,7.12384591 29.8850322,14.2476918 20.9743895,14.2476918 C14.5446665,14.2476918 8.99339443,10.5384856 6.40062571,8.47303568 Z" id="Combined-Shape"></path>
            </g>
            <g id="fish" transform="translate(0.000000, 23.757576)">
                <path d="M6.40062571,8.47303568 L0,13.1078765 C0,13.1078765 1.65696818,10.1871001 1.65696818,7.26632311 C1.65696818,4.34554617 1.14640001e-15,1.42476918 1.14640001e-15,1.42476918 L6.2140681,5.92451929 C8.71987894,3.89457931 14.3859579,0 20.9743895,0 C29.8850322,0 37.1085353,7.12384591 37.1085353,7.12384591 C37.1085353,7.12384591 29.8850322,14.2476918 20.9743895,14.2476918 C14.5446665,14.2476918 8.99339443,10.5384856 6.40062571,8.47303568 Z" id="Combined-Shape"></path>
            </g>
            <g id="fish" transform="translate(0.000000, 73.535354)">
                <path d="M6.40062571,8.47303568 L0,13.1078765 C0,13.1078765 1.65696818,10.1871001 1.65696818,7.26632311 C1.65696818,4.34554617 1.14640001e-15,1.42476918 1.14640001e-15,1.42476918 L6.2140681,5.92451929 C8.71987894,3.89457931 14.3859579,0 20.9743895,0 C29.8850322,0 37.1085353,7.12384591 37.1085353,7.12384591 C37.1085353,7.12384591 29.8850322,14.2476918 20.9743895,14.2476918 C14.5446665,14.2476918 8.99339443,10.5384856 6.40062571,8.47303568 Z" id="Combined-Shape"></path>
            </g>
            <g id="fish" transform="translate(48.355872, 23.757576)">
                <path d="M6.40062571,8.47303568 L0,13.1078765 C0,13.1078765 1.65696818,10.1871001 1.65696818,7.26632311 C1.65696818,4.34554617 1.14640001e-15,1.42476918 1.14640001e-15,1.42476918 L6.2140681,5.92451929 C8.71987894,3.89457931 14.3859579,0 20.9743895,0 C29.8850322,0 37.1085353,7.12384591 37.1085353,7.12384591 C37.1085353,7.12384591 29.8850322,14.2476918 20.9743895,14.2476918 C14.5446665,14.2476918 8.99339443,10.5384856 6.40062571,8.47303568 Z" id="Combined-Shape"></path>
            </g>
            <g id="fish" transform="translate(48.355872, 73.535354)">
                <path d="M6.40062571,8.47303568 L0,13.1078765 C0,13.1078765 1.65696818,10.1871001 1.65696818,7.26632311 C1.65696818,4.34554617 1.14640001e-15,1.42476918 1.14640001e-15,1.42476918 L6.2140681,5.92451929 C8.71987894,3.89457931 14.3859579,0 20.9743895,0 C29.8850322,0 37.1085353,7.12384591 37.1085353,7.12384591 C37.1085353,7.12384591 29.8850322,14.2476918 20.9743895,14.2476918 C14.5446665,14.2476918 8.99339443,10.5384856 6.40062571,8.47303568 Z" id="Combined-Shape"></path>
            </g>
        </g>
    </g>
</svg>