<?xml version="1.0" encoding="UTF-8"?>
<svg width="273px" height="213px" viewBox="0 0 273 213" version="1.1" xmlns="http://www.w3.org/2000/svg" xmlns:xlink="http://www.w3.org/1999/xlink">
    <!-- Generator: sketchtool 48.2 (47327) - http://www.bohemiancoding.com/sketch -->
    <title>6D010576-4FD8-4D10-A118-1752C3525568</title>
    <desc>Created with sketchtool.</desc>
    <defs></defs>
    <g id="home" stroke="none" stroke-width="1" fill="none" fill-rule="evenodd" transform="translate(-79.000000, -731.000000)">
        <g id="scuba-diver" transform="translate(62.000000, 731.000000)">
            <g id="bubbles" transform="translate(246.000000, 0.000000)" fill="#1B7BB6">
                <circle id="Oval-3" cx="22.5" cy="95.5" r="1.5"></circle>
                <circle id="Oval-3-Copy-2" cx="10" cy="83" r="3"></circle>
                <circle id="Oval-3-Copy-6" cx="40.5" cy="43.5" r="3.5"></circle>
                <circle id="Oval-3-Copy-7" cx="28.5" cy="26.5" r="4.5"></circle>
                <circle id="Oval-3-Copy-8" cx="14.5" cy="4.5" r="4.5"></circle>
                <circle id="Oval-3-Copy-3" cx="30" cy="67" r="3"></circle>
                <circle id="Oval-3-Copy-5" cx="23" cy="78" r="2"></circle>
                <circle id="Oval-3-Copy-9" cx="17" cy="22" r="2"></circle>
                <circle id="Oval-3-Copy" cx="6" cy="61" r="6"></circle>
                <circle id="Oval-3-Copy-4" cx="22.5" cy="47.5" r="3.5"></circle>
            </g>
            <g id="diver" transform="translate(143.215747, 156.205222) rotate(-12.000000) translate(-143.215747, -156.205222) translate(7.215747, 107.205222)">
                <g id="Group-6" transform="translate(99.889985, 30.955738) rotate(9.000000) translate(-99.889985, -30.955738) translate(13.889985, 13.455738)">
                    <path d="M171.928557,22.856068 L161.027822,2.09032791e-12 C161.027822,2.09032791e-12 137.133787,5.9717376 125.934587,9.4031074 C115.642878,12.5564275 96.5550936,19.7540698 96.5550936,19.7540698 C70.9837539,9.4840992 38.1075052,2.09032791e-12 38.1075052,2.09032791e-12 L35.7037576,9.6388229 L91.14613,33.3396696 C93.6862381,34.4255307 97.9636654,34.9432901 100.685292,34.4985263 L171.928557,22.856068 Z" id="Combined-Shape-Copy-4" fill="#313131"></path>
                    <path d="M38.864349,1.03002051e-11 C38.864349,1.03002051e-11 37.3277682,4.03078208 34.4820749,13.915822 C28.9634515,32.5330901 0.454197669,28.242466 0.454197669,28.242466" id="Line-Copy-6" stroke="#FF675B" stroke-width="3" stroke-linecap="round"></path>
                </g>
                <rect id="Rectangle-9" fill="#4A4A4A" x="159.042051" y="22.8089337" width="83.8285901" height="30.7893974" rx="15.3946987"></rect>
                <rect id="Rectangle-16" fill="#5B5B5B" x="178.766425" y="22.8089337" width="4.93109353" height="30.7893974"></rect>
                <path d="M178.204101,2.94503772 L225.876567,2.94503772 C231.320415,2.94503772 235.733525,7.35929168 235.733525,12.8072248 L235.733525,12.8072248 C235.733525,18.2539603 231.314812,22.6694119 225.876567,22.6694119 L178.204101,22.6694119 L178.204101,2.94503772 Z" id="Rectangle-9-Copy" fill="#2FB1EB"></path>
                <rect id="Rectangle-12" fill="#4A4A4A" x="239.583245" y="31.4084101" width="14.7932806" height="14.7932806"></rect>
                <path d="M236.902605,13.1569773 L243.552037,13.1569773 C247.224417,13.1569773 250.201469,16.1426691 250.201469,19.8031211 L250.201469,32.3186103" id="Path-6" stroke="#FF675B" stroke-width="2"></path>
                <rect id="Rectangle-15" fill="#2FB1EB" x="233.267978" y="10.341678" width="4.93109353" height="4.93109353"></rect>
                <g id="Group-8" transform="translate(255.452915, 37.959538) rotate(-7.000000) translate(-255.452915, -37.959538) translate(240.452915, 26.459538)">
                    <rect id="Rectangle-13" fill="#4A4A4A" x="-5.68434189e-14" y="-3.62376795e-13" width="29.5865612" height="20.5462231" rx="10.2731115"></rect>
                    <rect id="Rectangle-10" fill="#FF675B" x="17.2588274" y="-3.7658765e-13" width="2.46554677" height="13.9714317"></rect>
                    <path d="M14.7932806,15.9713911 C14.7932806,14.866844 15.6931537,13.9714317 16.7996246,13.9714317 L21.8272747,13.9714317 C22.9353479,13.9714317 23.8336187,14.8663303 23.8336187,15.9697667 L23.8336187,18.8183598 C23.8336187,19.9220097 22.9503329,20.9508658 21.8496782,21.1180551 L16.7772212,21.8885606 C15.6815211,22.0549973 14.7932806,21.2947536 14.7932806,20.1899615 L14.7932806,15.9713911 Z" id="Rectangle-14" fill="#FFFFFF"></path>
                    <rect id="Rectangle-11" fill="#2FB1EB" x="7.3966403" y="19.7243741" width="4.93109353" height="2.46554677"></rect>
                </g>
                <g id="Group-7" transform="translate(88.554486, 54.227528) rotate(-4.000000) translate(-88.554486, -54.227528) translate(1.554486, 36.727528)">
                    <path d="M173.928557,22.856068 L163.027822,-3.62376795e-13 C163.027822,-3.62376795e-13 139.133787,5.9717376 127.934587,9.4031074 C117.642878,12.5564275 98.5550936,19.7540698 98.5550936,19.7540698 C72.9837539,9.4840992 34.8810642,4.57715274 34.8810642,4.57715274 L32.4773166,14.2159756 L92.985726,33.7678195 C95.6144228,34.6172199 99.9636654,34.9432901 102.685292,34.4985263 L173.928557,22.856068 Z" id="Combined-Shape" fill="#4A4A4A"></path>
                    <path d="M35.1114066,4.10924461 C35.1114066,4.10924461 34.5152619,6.66783107 31.6695686,16.552871 C26.1509452,35.1701391 0.267180966,34.0668748 0.267180966,34.0668748" id="Line" stroke="#FF675B" stroke-width="3" stroke-linecap="round"></path>
                </g>
                <path d="M222.129522,63.7675048 C228.076029,62.5222829 231.176861,56.8922252 229.062707,51.2119911 L229.700406,52.9253391 C227.582991,47.2363422 221.299474,44.4716651 215.67209,46.7477076 L184.302114,59.4355567 L141.35513,58.4119718 L140.176547,66.9769283 L178.785484,71.2502582 C181.535219,71.5546055 185.954849,71.3426222 188.654937,70.7772132 L222.129522,63.7675048 Z" id="Combined-Shape-Copy-3" fill="#313131" transform="translate(184.951649, 58.669978) scale(1, -1) rotate(40.000000) translate(-184.951649, -58.669978) "></path>
                <path d="M145.241971,81.0423867 C145.241971,81.0423867 131.658796,89.423801 137.544361,93.4832852 C143.429926,97.5427695 151.911067,86.7395493 151.911067,86.7395493 L145.241971,81.0423867 Z" id="Path-7" fill="#4A4A4A"></path>
                <path d="M149.459766,89.3583902 C149.459766,89.3583902 147.964546,93.3354086 146.765883,93.3354086 C145.56722,93.3354086 146.765883,88.9480677 146.765883,88.9480677 L149.459766,89.3583902 Z" id="Path-8" fill="#4A4A4A"></path>
            </g>
        </g>
    </g>
</svg>