<?xml version="1.0" encoding="UTF-8"?>
<svg width="21px" height="18px" viewBox="0 0 21 18" version="1.1" xmlns="http://www.w3.org/2000/svg" xmlns:xlink="http://www.w3.org/1999/xlink">
    <!-- Generator: sketchtool 48.2 (47327) - http://www.bohemiancoding.com/sketch -->
    <title>F2F11432-A7BE-4AB0-B904-C1FDCF40A932</title>
    <desc>Created with sketchtool.</desc>
    <defs></defs>
    <g id="footer" stroke="none" stroke-width="1" fill="none" fill-rule="evenodd" transform="translate(-766.000000, -208.000000)">
        <path d="M784.526149,210.845732 C785.416094,210.284125 786.098961,209.393615 786.41944,208.332804 C785.586195,208.854109 784.665434,209.231114 783.683043,209.435216 C782.899102,208.551206 781.778658,208 780.538651,208 C778.159711,208 776.231907,210.034523 776.231907,212.54355 C776.231907,212.899754 776.267653,213.246858 776.341609,213.578362 C772.762106,213.38856 769.588132,211.58154 767.461877,208.830709 C767.090861,209.504117 766.878852,210.284125 766.878852,211.116135 C766.878852,212.691752 767.639373,214.082768 768.795563,214.899177 C768.089276,214.875776 767.424899,214.669074 766.843106,214.33107 L766.843106,214.386971 C766.843106,216.589195 768.32717,218.426116 770.300581,218.84212 C769.938193,218.948722 769.558549,219.002022 769.164113,219.002022 C768.886776,219.002022 768.615601,218.974722 768.354288,218.921421 C768.901567,220.725841 770.492868,222.041456 772.378764,222.076556 C770.903328,223.29597 769.045783,224.021378 767.027998,224.021378 C766.680401,224.021378 766.336503,224.001878 766,223.958977 C767.90685,225.247292 770.171157,226 772.604332,226 C780.530023,226 784.861419,219.076123 784.861419,213.071356 C784.861419,212.873754 784.858954,212.677452 784.850326,212.48375 C785.692199,211.842843 786.42437,211.042034 787,210.130724 C786.227153,210.492128 785.396373,210.73653 784.526149,210.845732 Z" id="twitter-icon" fill="#FFFFFF"></path>
    </g>
</svg>