<?xml version="1.0" encoding="UTF-8"?>
<svg width="1024px" height="288px" viewBox="0 0 1024 288" version="1.1" xmlns="http://www.w3.org/2000/svg" xmlns:xlink="http://www.w3.org/1999/xlink">
    <!-- Generator: sketchtool 48.2 (47327) - http://www.bohemiancoding.com/sketch -->
    <title>09534C28-19B8-424E-8396-610E38B0D993</title>
    <desc>Created with sketchtool.</desc>
    <defs></defs>
    <g id="home" stroke="none" stroke-width="1" fill="none" fill-rule="evenodd" transform="translate(0.000000, -324.000000)">
        <path d="M511.751318,324.517438 L511.751144,324 C511.751144,324 511.834747,324.093426 512,324.264523 C512.165253,324.093426 512.248856,324 512.248856,324 L512.248856,324.517613 C514.681331,326.951489 525.929084,337.139808 543.766697,337.139808 C564.023924,337.139808 575.782251,324 575.782251,324 C575.782251,324 587.540578,337.139808 607.797804,337.139808 C628.055031,337.139808 639.813358,324 639.813358,324 C639.813358,324 651.571685,337.139808 671.828911,337.139808 C692.086138,337.139808 703.844465,324 703.844465,324 C703.844465,324 715.602792,337.139808 735.860018,337.139808 C756.117245,337.139808 767.875572,324 767.875572,324 C767.875572,324 779.633899,337.139808 799.891125,337.139808 C820.148352,337.139808 831.906679,324 831.906679,324 C831.906679,324 843.665006,337.139808 863.922232,337.139808 C884.179459,337.139808 895.937786,324 895.937786,324 C895.937786,324 907.696113,337.139808 927.953339,337.139808 C948.210566,337.139808 959.968893,324 959.968893,324 C959.968893,324 971.72722,337.139808 991.984446,337.139808 C1012.24167,337.139808 1024,324 1024,324 L1024,612 L512.248856,612 L0.0969532232,612 L0,324 C0,324 11.758327,337.139808 32.0155535,337.139808 C52.2727801,337.139808 64.0311071,324 64.0311071,324 C64.0311071,324 75.789434,337.139808 96.0466606,337.139808 C116.303887,337.139808 128.062214,324 128.062214,324 C128.062214,324 139.820541,337.139808 160.077768,337.139808 C180.334994,337.139808 192.093321,324 192.093321,324 C192.093321,324 203.851648,337.139808 224.108875,337.139808 C244.366101,337.139808 256.124428,324 256.124428,324 C256.124428,324 267.882755,337.139808 288.139982,337.139808 C308.397208,337.139808 320.155535,324 320.155535,324 C320.155535,324 331.913862,337.139808 352.171089,337.139808 C372.428315,337.139808 384.186642,324 384.186642,324 C384.186642,324 395.944969,337.139808 416.202196,337.139808 C436.459422,337.139808 448.217749,324 448.217749,324 C448.217749,324 459.976076,337.139808 480.233303,337.139808 C498.071342,337.139808 509.319206,326.951003 511.751318,324.517438 Z" id="waves" fill="#0973BA"></path>
    </g>
</svg>