<?xml version="1.0" encoding="UTF-8"?>
<svg width="278px" height="162px" viewBox="0 0 278 162" version="1.1" xmlns="http://www.w3.org/2000/svg" xmlns:xlink="http://www.w3.org/1999/xlink">
    <!-- Generator: sketchtool 48.2 (47327) - http://www.bohemiancoding.com/sketch -->
    <title>F25CA2BA-8DD1-497B-BB7A-3B428C014D9F</title>
    <desc>Created with sketchtool.</desc>
    <defs>
        <path d="M278,104.502949 L278,94 C278,68.0369094 256.958965,47 231.003534,47 L42,47 L42,61.5 L42,76 C42,101.963091 63.0410345,123 88.996466,123 L269.99565,123 C274.410871,123 278,119.420919 278,115.005898 L278,104.502949 L278,104.502949 Z" id="path-1"></path>
    </defs>
    <g id="home" stroke="none" stroke-width="1" fill="none" fill-rule="evenodd" transform="translate(-70.000000, -1780.000000)">
        <g id="whale" transform="translate(70.000000, 1780.000000)">
            <path d="M156,94 L186,94 L186,137.006998 C186,145.287404 179.286093,152 171,152 L156,152 L156,94 Z" id="Rectangle-18-Copy-2" fill="#0A527E"></path>
            <path d="M278,135.495964 C278,138.259617 275.758639,140.5 273.002697,140.5 L88.996466,140.5 C63.0410345,140.5 42,119.463091 42,93.5 L42,61 L42,75.5 C42,101.463091 63.0410345,122.5 88.996466,122.5 L270.992553,122.5 C274.862659,122.5 278,125.629395 278,129.49252 L278,135.495964 Z" id="Combined-Shape" fill="#FFFFFF"></path>
            <g id="whale-top-body">
                <g id="Group-9" fill="#46ADF3">
                    <path d="M113.981055,0 L114,0 L114,6 L108,6 L108,5.98105518 C111.191203,5.7382961 113.738296,3.19120304 113.981055,2.97650793e-13 L113.981055,0 Z M57,18 C57,11.372583 62.3752497,6 69.0011927,6 L114,6 L114,18 C114,24.627417 108.62475,30 101.998807,30 L57,30 L57,18 L57,18 Z" id="Combined-Shape"></path>
                    <path d="M0.0189448167,0 L0,0 L0,6 L6,6 L6,5.98105518 C2.80879696,5.7382961 0.261703897,3.19120304 0.0189448167,5.55111512e-17 L0.0189448167,0 Z M57,18 C57,11.372583 51.6247503,6 44.9988073,6 L0,6 L0,18 C0,24.627417 5.37524966,30 12.0011927,30 L57,30 L57,18 L57,18 Z" id="Combined-Shape"></path>
                    <path d="M79,46.9810552 L79,47 L73,47 L42,47 L42,24 L73,24 L73,41 L73.0189448,41 C73.2617039,44.191203 75.808797,46.7382961 79,46.9810552 Z" id="Combined-Shape"></path>
                    <path d="M73.0189448,36 L73,36 L73,30 L79,30 L79,30.0189448 C75.808797,30.2617039 73.2617039,32.808797 73.0189448,36 L73.0189448,36 Z" id="Combined-Shape-Copy-5"></path>
                    <path d="M41.9810552,36 L42,36 L42,30 L36,30 L36,30.0189448 C39.191203,30.2617039 41.7382961,32.808797 41.9810552,36 L41.9810552,36 Z" id="Combined-Shape-Copy-6"></path>
                </g>
                <mask id="mask-2" fill="white">
                    <use xlink:href="#path-1"></use>
                </mask>
                <use id="Combined-Shape" fill="#46ADF3" xlink:href="#path-1"></use>
            </g>
            <path d="M178,104 L208,104 L208,147.006998 C208,155.287404 201.286093,162 193,162 L178,162 L178,104 Z" id="Rectangle-18" fill="#46ADF3"></path>
            <g id="eyes" transform="translate(211.000000, 97.000000)" fill="#FFFFFF">
                <path d="M6.63125696,0.0328108814 C5.63478258,0.858218653 5,2.10497862 5,3.5 C5,5.98528137 7.01471863,8 9.5,8 C10.3613514,8 11.1661795,7.7579952 11.8502,7.33827 C11.2420729,10.0077748 8.85369104,12 6,12 C2.6862915,12 0,9.3137085 0,6 C0,2.6862915 2.6862915,0 6,0 C6.21319892,0 6.42380068,0.0111197371 6.63125696,0.0328108814 Z" id="Combined-Shape"></path>
            </g>
        </g>
    </g>
</svg>