<?xml version="1.0" encoding="UTF-8"?>
<svg width="293px" height="40px" viewBox="0 0 293 40" version="1.1" xmlns="http://www.w3.org/2000/svg" xmlns:xlink="http://www.w3.org/1999/xlink">
    <!-- Generator: sketchtool 48.2 (47327) - http://www.bohemiancoding.com/sketch -->
    <title>212E077A-967A-4CAB-8ED9-14E83DBEF4ED</title>
    <desc>Created with sketchtool.</desc>
    <defs>
        <polygon id="path-1" points="14.5449283 19.609875 14.5449283 0.48425 0.464254397 0.48425 0.464254397 19.609875 14.5449283 19.609875"></polygon>
    </defs>
    <g id="menu" stroke="none" stroke-width="1" fill="none" fill-rule="evenodd" transform="translate(-31.000000, -20.000000)">
        <g id="ww-logo" transform="translate(31.000000, 20.000000)">
            <g id="moby" transform="translate(0.000000, 0.549250)">
                <path d="M46.3967952,5.332125 C51.947459,4.628375 70.9998391,5.539 72.0774496,23.915875 C73.22073,43.434 36.1616837,38.924625 36.1616837,38.924625 C36.1616837,38.924625 12.0189541,37.575875 5.24683145,25.799625 C2.31420466,20.700875 5.4338341,16.259 4.9991624,14.779 C4.49069032,13.053375 0.629304559,13.113375 0.0908119877,8.47775 C-0.301330686,5.104 0.369126964,2.76525 6.30380294,0.075875 C4.40875939,4.690875 11.0257761,7.36025 9.2032821,11.415875 C12.1740599,7.980875 18.231945,11.272125 21.4629004,6.3665 C21.9100807,10.08775 21.3065437,13.41775 19.4752937,15.152125 C15.9341265,18.504625 12.2441078,16.509 10.9344638,16.475875 C9.60793332,16.4415 8.46527835,17.797125 8.97625213,19.954 C9.34775572,21.5165 11.4241731,23.3765 14.8777805,21.9815 C19.1012884,20.274 36.1272853,6.63525 46.3967952,5.332125" id="Fill-1" fill="#1076B6"></path>
                <path d="M61.6195611,18.7616875 C61.6195611,20.5791875 60.144179,22.0523125 58.326063,22.0523125 C56.5073216,22.0523125 55.0331903,20.5791875 55.0331903,18.7616875 C55.0331903,16.9448125 56.5073216,15.4710625 58.326063,15.4710625 C60.144179,15.4710625 61.6195611,16.9448125 61.6195611,18.7616875" id="Fill-4" fill="#FEFEFE"></path>
                <path d="M61.0894493,17.456125 C61.0894493,18.48425 60.2551298,19.31675 59.2263025,19.31675 C58.1981007,19.31675 57.365032,18.48425 57.365032,17.456125 C57.365032,16.428 58.1981007,15.5955 59.2263025,15.5955 C60.2551298,15.5955 61.0894493,16.428 61.0894493,17.456125" id="Fill-6" fill="#1076B6"></path>
            </g>
            <path d="M108.562604,16.0333125 L102.766148,35.1595625 L98.4463239,35.1595625 L95.6025077,26.3339375 C95.0014724,24.4489375 94.782573,23.1101875 94.7556796,23.1101875 L94.7281609,23.1101875 C94.7006421,23.1101875 94.4817427,24.4489375 93.8807074,26.3339375 L91.0375166,35.1595625 L86.7170675,35.1595625 L80.9206109,16.0333125 L85.8145765,16.0333125 L88.1661817,25.0495625 C88.6308739,26.8533125 88.9041855,28.1370625 88.9317042,28.1370625 L88.9585976,28.1370625 C88.9861164,28.1370625 89.2875721,26.8533125 89.943645,25.0495625 L92.5954551,17.8364375 L96.88776,17.8364375 L99.5401955,25.0495625 C100.196268,26.8533125 100.497099,28.1370625 100.524617,28.1370625 L100.551511,28.1370625 C100.57903,28.1370625 100.852341,26.8533125 101.317033,25.0495625 L103.668639,16.0333125 L108.562604,16.0333125 Z" id="Fill-8" fill="#FFFFFF"></path>
            <polygon id="Fill-10" fill="#FFFFFF" points="127.314467 16.0333125 127.314467 35.1595625 122.720706 35.1595625 122.720706 27.7276875 115.557066 27.7276875 115.557066 35.1595625 110.963931 35.1595625 110.963931 16.0333125 115.557066 16.0333125 115.557066 23.4376875 122.720706 23.4376875 122.720706 16.0333125"></polygon>
            <path d="M140.106386,31.0061875 C143.222888,31.0061875 145.273663,28.7930625 145.273663,25.5961875 C145.273663,22.3724375 143.222888,20.1861875 140.106386,20.1861875 C137.016777,20.1861875 134.966002,22.3724375 134.966002,25.5961875 C134.966002,28.7930625 137.016777,31.0061875 140.106386,31.0061875 M140.106386,15.6511875 C145.602012,15.6511875 150.058179,19.8311875 150.058179,25.5961875 C150.058179,31.3611875 145.602012,35.5418125 140.106386,35.5418125 C134.610759,35.5418125 130.181486,31.3611875 130.181486,25.5961875 C130.181486,19.8311875 134.610759,15.6511875 140.106386,15.6511875" id="Fill-12" fill="#FFFFFF"></path>
            <polygon id="Fill-14" fill="#FFFFFF" points="166.569137 30.86975 166.569137 35.159125 152.926074 35.159125 152.926074 16.0335 157.518584 16.0335 157.518584 30.86975"></polygon>
            <polygon id="Fill-16" fill="#FFFFFF" points="183.3262 30.86975 183.3262 35.159125 169.245338 35.159125 169.245338 16.0335 183.161713 16.0335 183.161713 20.322875 173.838474 20.322875 173.838474 23.465375 181.139082 23.465375 181.139082 27.481625 173.838474 27.481625 173.838474 30.86975"></polygon>
            <path d="M220.259285,16.0333125 L214.462829,35.1595625 L210.143005,35.1595625 L207.299189,26.3339375 C206.698153,24.4489375 206.479254,23.1101875 206.452361,23.1101875 L206.424842,23.1101875 C206.397323,23.1101875 206.178424,24.4489375 205.576763,26.3339375 L202.734198,35.1595625 L198.413749,35.1595625 L192.617292,16.0333125 L197.511257,16.0333125 L199.862863,25.0495625 C200.327555,26.8533125 200.600866,28.1370625 200.628385,28.1370625 L200.655279,28.1370625 C200.682797,28.1370625 200.984253,26.8533125 201.640326,25.0495625 L204.292136,17.8364375 L208.584441,17.8364375 L211.236876,25.0495625 C211.892949,26.8533125 212.194405,28.1370625 212.221298,28.1370625 L212.248192,28.1370625 C212.275711,28.1370625 212.549022,26.8533125 213.013714,25.0495625 L215.36532,16.0333125 L220.259285,16.0333125 Z" id="Fill-18" fill="#FFFFFF"></path>
            <polygon id="Fill-20" fill="#FFFFFF" points="239.011148 16.0333125 239.011148 35.1595625 234.417387 35.1595625 234.417387 27.7276875 227.253747 27.7276875 227.253747 35.1595625 222.660612 35.1595625 222.660612 16.0333125 227.253747 16.0333125 227.253747 23.4376875 234.417387 23.4376875 234.417387 16.0333125"></polygon>
            <path d="M252.732701,28.1371875 L251.365518,24.4215625 C250.955238,23.3284375 250.463027,21.6071875 250.436134,21.6071875 L250.408615,21.6071875 C250.381096,21.6071875 249.888885,23.3284375 249.47923,24.4215625 L248.112047,28.1371875 L252.732701,28.1371875 Z M254.208709,32.1540625 L246.635414,32.1540625 L245.542168,35.1590625 L240.593165,35.1590625 L248.24839,16.0334375 L252.595733,16.0334375 L260.251584,35.1590625 L255.30258,35.1590625 L254.208709,32.1540625 Z" id="Fill-22" fill="#FFFFFF"></path>
            <polygon id="Fill-24" fill="#FFFFFF" points="275.477727 30.86975 275.477727 35.159125 261.834039 35.159125 261.834039 16.0335 266.427174 16.0335 266.427174 30.86975"></polygon>
            <g id="Group-28" transform="translate(277.689549, 15.549250)">
                <mask id="mask-2" fill="white">
                    <use xlink:href="#path-1"></use>
                </mask>
                <g id="Clip-27"></g>
                <polygon id="Fill-26" fill="#FFFFFF" mask="url(#mask-2)" points="14.5451159 15.3205 14.5451159 19.609875 0.464254397 19.609875 0.464254397 0.48425 14.3806286 0.48425 14.3806286 4.773625 5.05738964 4.773625 5.05738964 7.916125 12.357998 7.916125 12.357998 11.932375 5.05738964 11.932375 5.05738964 15.3205"></polygon>
            </g>
        </g>
    </g>
</svg>